<?xml version="1.0" encoding="UTF-8"?>
<svg version="1.1" xmlns="http://www.w3.org/2000/svg" width="1080" height="720">
<path d="M0 0 C356.4 0 712.8 0 1080 0 C1080 237.6 1080 475.2 1080 720 C723.6 720 367.2 720 0 720 C0 482.4 0 244.8 0 0 Z " fill="#FEFEFE" transform="translate(0,0)"/>
<path d="M0 0 C4.04257434 2.74614038 4.04257434 2.74614038 8.66748047 3.83105469 C10.69751346 2.63117311 10.69751346 2.63117311 12.54248047 0.76855469 C13.23341797 0.12660156 13.92435547 -0.51535156 14.63623047 -1.17675781 C16.46078181 -2.96622163 18.25747059 -4.77768519 20.04248047 -6.60644531 C22.66748047 -9.16894531 22.66748047 -9.16894531 24.66748047 -9.16894531 C27.32659046 -1.88731271 28.83462465 5.32969021 30.16748047 12.95605469 C30.60162117 15.3702531 31.036511 17.78431693 31.47216797 20.19824219 C31.78105957 21.92252441 31.78105957 21.92252441 32.09619141 23.68164062 C33.44324926 31.10772882 34.97047881 38.49855071 36.51513672 45.88574219 C36.6554834 46.56604492 36.79583008 47.24634766 36.94042969 47.94726562 C37.32867712 49.82859652 37.72248679 51.70877714 38.11669922 53.58886719 C38.60031137 56.4356621 38.86234761 58.95544764 38.66748047 61.83105469 C38.33748047 62.16105469 38.00748047 62.49105469 37.66748047 62.83105469 C31.01843239 62.29086121 24.52523192 61.15568561 17.97998047 59.89355469 C17.06925781 59.72404297 16.15853516 59.55453125 15.22021484 59.37988281 C11.55706137 58.68023912 8.0547559 57.96110629 4.51513672 56.77246094 C0.98854919 55.6066069 -2.53607338 55.14008224 -6.20751953 54.70605469 C-7.24005859 54.57650391 -7.24005859 54.57650391 -8.29345703 54.44433594 C-9.97247228 54.23445903 -11.65241001 54.03198382 -13.33251953 53.83105469 C-12.40632813 55.06855469 -12.40632813 55.06855469 -11.46142578 56.33105469 C-6.72665289 62.75137285 -2.31823642 69.25489588 1.60498047 76.20605469 C1.96970459 76.84671875 2.33442871 77.48738281 2.71020508 78.14746094 C4.52129424 81.42422753 6.02641919 84.65784178 7.29638672 88.18261719 C8.3739801 91.81299573 8.3739801 91.81299573 10.66748047 93.83105469 C11.24985119 96.75455571 11.74322046 99.63454561 12.16748047 102.58105469 C12.94770989 107.89690352 13.95321321 112.72441889 15.66748047 117.83105469 C18.28089785 140.8427038 7.73960406 167.41276027 -6.40942383 185.23632812 C-21.72868171 203.80900213 -43.14449906 218.10716021 -67.33251953 221.83105469 C-96.92301716 224.25644002 -123.21940381 217.75394368 -146.18017578 198.61230469 C-164.60434093 182.66121881 -177.78187635 158.25441444 -179.55517578 133.75488281 C-180.03917761 119.89407174 -179.84562765 107.01756279 -175.33251953 93.83105469 C-174.94708984 92.60257812 -174.56166016 91.37410156 -174.16455078 90.10839844 C-168.82358079 73.94721094 -158.6402749 59.47175991 -145.33251953 48.83105469 C-144.01829533 47.62459687 -142.7058243 46.41622681 -141.39501953 45.20605469 C-137.98618165 42.20735312 -134.44638394 40.03310053 -130.41064453 37.97167969 C-128.27408969 36.86803393 -128.27408969 36.86803393 -126.31689453 35.28027344 C-124.30130049 33.80825495 -122.70600862 33.11728905 -120.33251953 32.39355469 C-117.65836378 31.56090982 -115.00320214 30.71551232 -112.35986328 29.78808594 C-111.34021484 29.43101562 -110.32056641 29.07394531 -109.27001953 28.70605469 C-108.33029297 28.37347656 -107.39056641 28.04089844 -106.42236328 27.69824219 C-91.04558211 23.38263483 -71.51135815 24.20795744 -56.33251953 28.83105469 C-55.31544922 29.12109375 -54.29837891 29.41113281 -53.25048828 29.70996094 C-44.80452474 32.30121291 -36.6941571 35.92329631 -29.33251953 40.83105469 C-26.05892133 40.66317786 -24.61442335 40.06597454 -22.08251953 37.95605469 C-20.14255977 35.85947386 -20.14255977 35.85947386 -19.33251953 32.83105469 C-19.89769287 32.71028564 -20.46286621 32.5895166 -21.04516602 32.46508789 C-23.51911783 31.77933137 -25.62732438 30.81995628 -27.93017578 29.68652344 C-28.80867187 29.25855469 -29.68716797 28.83058594 -30.59228516 28.38964844 C-31.5171875 27.9371875 -32.44208984 27.48472656 -33.39501953 27.01855469 C-58.84645756 14.78527694 -87.94887703 10.8545027 -115.33251953 19.83105469 C-115.97785645 20.04004395 -116.62319336 20.2490332 -117.28808594 20.46435547 C-144.92886043 29.75683443 -165.25444302 49.39173548 -178.89892578 74.74121094 C-186.11448265 89.73780718 -189.69404523 105.62590074 -189.58251953 122.20605469 C-189.59025391 123.34816406 -189.59798828 124.49027344 -189.60595703 125.66699219 C-189.58150986 136.42374807 -188.15536429 146.52931815 -184.64501953 156.70605469 C-184.38301758 157.47143555 -184.12101562 158.23681641 -183.85107422 159.02539062 C-177.75004614 176.32004047 -167.93503094 190.6352047 -155.33251953 203.83105469 C-154.76146484 204.46527344 -154.19041016 205.09949219 -153.60205078 205.75292969 C-137.6437966 222.88625722 -111.44443713 231.26727587 -88.64501953 232.15527344 C-56.69686593 232.89466301 -30.91525674 223.72377326 -7.33251953 201.83105469 C0.03561111 194.66950715 5.3919785 186.56704661 10.66748047 177.83105469 C11.23595703 176.94933594 11.80443359 176.06761719 12.39013672 175.15917969 C21.87969218 159.52932363 23.1472628 139.47257838 25.66748047 121.83105469 C38.20748047 121.83105469 50.74748047 121.83105469 63.66748047 121.83105469 C63.66748047 141.47420079 63.66748047 141.47420079 61.97998047 148.33105469 C61.79918945 149.11601318 61.61839844 149.90097168 61.43212891 150.7097168 C60.87036765 153.0909816 60.27530941 155.4611711 59.66748047 157.83105469 C59.48556152 158.55824707 59.30364258 159.28543945 59.11621094 160.03466797 C52.02368797 187.86600699 37.32490991 211.14854457 17.66748047 231.83105469 C17.07451172 232.48847656 16.48154297 233.14589844 15.87060547 233.82324219 C2.49694447 248.18999683 -19.58619397 260.11630617 -38.36669922 265.26611328 C-40.41043555 265.85344635 -42.416639 266.52263507 -44.43408203 267.19433594 C-56.8233147 270.99945791 -68.98205652 271.29370437 -81.83251953 271.26855469 C-82.69769196 271.26859497 -83.56286438 271.26863525 -84.45425415 271.26867676 C-98.51894599 271.23069784 -111.68811871 270.09578514 -125.14501953 265.70605469 C-126.09006348 265.39966064 -127.03510742 265.0932666 -128.00878906 264.77758789 C-136.57428185 261.90670402 -144.50072207 258.31662939 -152.33251953 253.83105469 C-152.99977051 253.45078125 -153.66702148 253.07050781 -154.35449219 252.67871094 C-164.20195708 246.98356651 -172.94659322 240.50517823 -181.33251953 232.83105469 C-182.18072266 232.06535156 -183.02892578 231.29964844 -183.90283203 230.51074219 C-196.19018629 218.85553477 -205.64603382 204.83480627 -213.33251953 189.83105469 C-213.73728516 189.04988281 -214.14205078 188.26871094 -214.55908203 187.46386719 C-219.68709122 176.74924637 -223.04979109 164.88594205 -225.64501953 153.33105469 C-225.80421875 152.6266626 -225.96341797 151.92227051 -226.12744141 151.1965332 C-234.2847354 112.84916602 -224.6916907 73.51762049 -203.89501953 40.92480469 C-189.82157353 19.88272834 -170.58664185 4.50255921 -148.33251953 -7.16894531 C-147.28451172 -7.72388672 -147.28451172 -7.72388672 -146.21533203 -8.29003906 C-135.73623038 -13.69792887 -124.69350183 -17.1545429 -113.33251953 -20.16894531 C-112.12208984 -20.49378906 -110.91166016 -20.81863281 -109.66455078 -21.15332031 C-72.55816159 -29.58478281 -31.6728159 -20.20376266 0 0 Z " fill="#2C9830" transform="translate(393.33251953125,232.1689453125)"/>
<path d="M0 0 C1.01707031 0.29003906 2.03414063 0.58007812 3.08203125 0.87890625 C11.57136868 3.48346549 21.3283567 6.942022 28 13 C28 13.99 28 14.98 28 16 C19.98573769 16.48817841 14.05087756 15.98837518 7 12 C6.67 14.31 6.34 16.62 6 19 C5.01 19.33 4.02 19.66 3 20 C3.03955898 21.92309422 3.03955898 21.92309422 4 24 C6.98352894 25.78379415 6.98352894 25.78379415 10 27 C10 27.66 10 28.32 10 29 C10.99 29 11.98 29 13 29 C13.33 27.68 13.66 26.36 14 25 C15.65 25.33 17.3 25.66 19 26 C19 27.32 19 28.64 19 30 C16.69 30 14.38 30 12 30 C12 30.99 12 31.98 12 33 C10.68 33 9.36 33 8 33 C6 30 6 30 6 27 C5.278125 26.855625 4.55625 26.71125 3.8125 26.5625 C1.20833333 26.04166667 -1.39583333 25.52083333 -4 25 C-4 27.31 -4 29.62 -4 32 C-0.7 32.33 2.6 32.66 6 33 C5.34 35.31 4.68 37.62 4 40 C5.32 40.66 6.64 41.32 8 42 C8 43.32 8 44.64 8 46 C5.36 46 2.72 46 0 46 C0 47.65 0 49.3 0 51 C0.66 51 1.32 51 2 51 C3 52 4 53 5 54 C5.99 54.33 6.98 54.66 8 55 C8.0825 53.88625 8.165 52.7725 8.25 51.625 C9 48 9 48 10.6875 46.5625 C13.54487954 45.86746173 16.07059396 45.80470626 19 46 C19.33 46.33 19.66 46.66 20 47 C22.28808802 47.24179404 24.57465815 47.38336599 26.87109375 47.5234375 C29 48 29 48 31 51 C33.58380177 51.25030977 33.58380177 51.25030977 36 51 C36 48.69 36 46.38 36 44 C37.32 44.33 38.64 44.66 40 45 C40 45.66 40 46.32 40 47 C41.32 47.33 42.64 47.66 44 48 C44 48.66 44 49.32 44 50 C44.66 50.33 45.32 50.66 46 51 C42.62902617 52.49821059 40.79557881 53 37 53 C37 54.65 37 56.3 37 58 C38.093125 57.938125 39.18625 57.87625 40.3125 57.8125 C44 58 44 58 45.9375 59.25 C47 61 47 61 47 65 C44.60408962 65.02712351 42.20849043 65.0468982 39.8125 65.0625 C39.13896484 65.07087891 38.46542969 65.07925781 37.77148438 65.08789062 C34.06536498 65.10596926 30.56677917 65.06801862 27 64 C26.67 63.34 26.34 62.68 26 62 C25.01 61.67 24.02 61.34 23 61 C23 59.02 23 57.04 23 55 C25.475 54.505 25.475 54.505 28 54 C28 53.01 28 52.02 28 51 C27.01 51 26.02 51 25 51 C25 51.66 25 52.32 25 53 C20.82262526 54.59138085 17.46839215 55.21278058 13 55 C13 55.66 13 56.32 13 57 C11.2097939 57.67057887 9.41778511 58.3363469 7.625 59 C6.62726563 59.37125 5.62953125 59.7425 4.6015625 60.125 C2 61 2 61 0 61 C0.04125 61.9075 0.0825 62.815 0.125 63.75 C-0.00125958 67.03274897 -0.19462581 68.33492381 -2 71 C-3.2684375 71.88558594 -3.2684375 71.88558594 -4.5625 72.7890625 C-7.4367094 75.62684339 -7.39289217 78.24119772 -7.48828125 82.17578125 C-7.45514202 84.55517823 -7.39565295 86.93432554 -7.3125 89.3125 C-7.28994141 90.53001953 -7.26738281 91.74753906 -7.24414062 93.00195312 C-7.1853053 96.00255482 -7.1031414 99.00064797 -7 102 C-5.515 102.495 -5.515 102.495 -4 103 C-4 103.99 -4 104.98 -4 106 C-2.515 106.495 -2.515 106.495 -1 107 C-1 107.99 -1 108.98 -1 110 C-0.34 110 0.32 110 1 110 C1 110.66 1 111.32 1 112 C6.06165083 111.58095265 10.28579566 110.96425181 15 109 C17.6875 108.75 17.6875 108.75 20 109 C20.66 109.66 21.32 110.32 22 111 C24.06874034 111.6425235 24.06874034 111.6425235 26 112 C26.1969993 116.0829333 26.38095476 120.16635266 26.5625 124.25 C26.61857422 125.40886719 26.67464844 126.56773437 26.73242188 127.76171875 C26.78076172 128.87675781 26.82910156 129.99179687 26.87890625 131.140625 C26.9260376 132.16704102 26.97316895 133.19345703 27.02172852 134.25097656 C27.00222257 136.71880683 26.72799029 138.65670465 26 141 C25.34 141 24.68 141 24 141 C23.8453125 142.2684375 23.8453125 142.2684375 23.6875 143.5625 C23.06187951 146.69060245 22.06743984 149.20260808 20.75390625 152.08984375 C19.65558744 154.87263078 19.13311203 157.71959248 18.5390625 160.64453125 C17.65118394 164.52417453 16.32889101 168.25252736 15 172 C16.32 171.67 17.64 171.34 19 171 C19 170.34 19 169.68 19 169 C19.886875 168.773125 20.77375 168.54625 21.6875 168.3125 C25.45058652 166.82146572 27.24286445 164.9061699 30 162 C30.99 161.67 31.98 161.34 33 161 C33.73323796 158.98491642 33.73323796 158.98491642 34 157 C34.66 157 35.32 157 36 157 C36.28875 156.195625 36.5775 155.39125 36.875 154.5625 C38 152 38 152 40 151 C40.33 150.01 40.66 149.02 41 148 C41.66 147.67 42.32 147.34 43 147 C43.33 146.01 43.66 145.02 44 144 C44.66 144 45.32 144 46 144 C46.0515625 143.46375 46.103125 142.9275 46.15625 142.375 C47.37087638 133.98303592 51.22231302 127.15210971 55.1171875 119.75146484 C56.22488051 117.55384602 57.14357947 115.3060907 58 113 C58.66 113 59.32 113 60 113 C60.66 109.7 61.32 106.4 62 103 C60.68 103 59.36 103 58 103 C55.24981196 96.32097191 53.39169754 89.66921748 51.875 82.625 C51.60236328 81.37783203 51.60236328 81.37783203 51.32421875 80.10546875 C50.87989787 78.07094684 50.43954423 76.03555921 50 74 C50.99 74.33 51.98 74.66 53 75 C54.3515625 77.94921875 54.3515625 77.94921875 55.625 81.6875 C56.05039062 82.90824219 56.47578125 84.12898438 56.9140625 85.38671875 C57.88098049 88.60398185 58.54065996 91.67744036 59 95 C59.66 95 60.32 95 61 95 C61.33 94.01 61.66 93.02 62 92 C62.66 92 63.32 92 64 92 C63.92930525 88.27245842 63.75369894 84.65703217 63 81 C60.54366927 78.68392126 60.54366927 78.68392126 58 77 C57.6875 73.75 57.6875 73.75 58 71 C59.98 71 61.96 71 64 71 C64.25394531 71.67546875 64.50789062 72.3509375 64.76953125 73.046875 C65.11371094 73.93890625 65.45789063 74.8309375 65.8125 75.75 C66.14894531 76.63171875 66.48539063 77.5134375 66.83203125 78.421875 C67.89446333 81.01977055 67.89446333 81.01977055 69.57421875 83.078125 C73.91992466 88.93589845 72.38446639 98.04233334 71.50390625 104.81640625 C66.91621128 132.84732626 53.39408842 158.55995616 30.3125 175.6875 C7.98701027 190.33750739 -17.65883468 197.46636353 -44.38745117 192.35180664 C-72.16604977 185.53963365 -94.72447179 170.1007429 -109.99511719 145.72509766 C-122.36494266 124.48962954 -127.63594964 96.17762013 -121.3125 72.1875 C-120.58438691 69.77833983 -119.81496464 67.38118332 -119 65 C-118.61457031 63.77152344 -118.22914063 62.54304688 -117.83203125 61.27734375 C-112.49106126 45.11615625 -102.30775536 30.64070522 -89 20 C-87.6857758 18.79354219 -86.37330477 17.58517212 -85.0625 16.375 C-81.65366212 13.37629843 -78.11386441 11.20204585 -74.078125 9.140625 C-71.94157016 8.03697925 -71.94157016 8.03697925 -69.984375 6.44921875 C-67.96878096 4.97720027 -66.37348908 4.28623436 -64 3.5625 C-61.32584425 2.72985513 -58.6706826 1.88445763 -56.02734375 0.95703125 C-55.00769531 0.59996094 -53.98804688 0.24289062 -52.9375 -0.125 C-51.99777344 -0.45757812 -51.05804688 -0.79015625 -50.08984375 -1.1328125 C-34.71306258 -5.44841986 -15.17883862 -4.62309725 0 0 Z " fill="#0F6787" transform="translate(337,261)"/>
<path d="M0 0 C0 0.66 0 1.32 0 2 C0.61488281 1.98839844 1.22976563 1.97679687 1.86328125 1.96484375 C2.67152344 1.95582031 3.47976563 1.94679688 4.3125 1.9375 C5.51326172 1.92009766 5.51326172 1.92009766 6.73828125 1.90234375 C9 2 9 2 12 3 C12.61875 3.804375 13.2375 4.60875 13.875 5.4375 C16.14680333 8.17702754 17.65042354 8.9765183 21 10 C21 10.66 21 11.32 21 12 C21.99 12.33 22.98 12.66 24 13 C24 13.99 24 14.98 24 16 C24.66 16 25.32 16 26 16 C26.495 17.485 26.495 17.485 27 19 C28.99371825 20.34270821 30.9934562 21.67653494 33 23 C33 23.66 33 24.32 33 25 C34.13888672 25.16435547 34.13888672 25.16435547 35.30078125 25.33203125 C36.29464844 25.49058594 37.28851563 25.64914062 38.3125 25.8125 C39.29863281 25.96332031 40.28476562 26.11414063 41.30078125 26.26953125 C44.18187692 27.04921995 45.31219697 27.56457952 47 30 C47.5154245 32.79881044 47.22876238 35.11759395 47 38 C46.34 38.66 45.68 39.32 45 40 C43.91938411 43.55059505 42.94819251 47.10774517 42.03125 50.703125 C40.82448397 55.11775008 39.82603063 58.14953096 36 61 C35.34 61 34.68 61 34 61 C33.67 64.63 33.34 68.26 33 72 C32.34 72 31.68 72 31 72 C31 72.66 31 73.32 31 74 C30.34 74 29.68 74 29 74 C29.22807491 75.79458945 29.48322303 77.58575449 29.75 79.375 C29.88921875 80.37273437 30.0284375 81.37046875 30.171875 82.3984375 C30.74386889 85.14561047 30.74386889 85.14561047 33.078125 86.3515625 C33.71234375 86.56554687 34.3465625 86.77953125 35 87 C35 87.66 35 88.32 35 89 C29.89609144 89.61865558 27.22560493 87.58231412 23 85 C22.01 84.67 21.02 84.34 20 84 C14.99682613 80.2476196 13.44134387 72.76537548 12 67 C12 66.01 12 65.02 12 64 C11.34 64 10.68 64 10 64 C8.23945126 59.35855331 6.53472968 54.72224516 5 50 C4.34 50 3.68 50 3 50 C2.67 49.34 2.34 48.68 2 48 C1.01 47.67 0.02 47.34 -1 47 C-3.87304003 44.75153389 -5.3005068 41.77838412 -7.01953125 38.63671875 C-7.97954908 36.88364145 -7.97954908 36.88364145 -9.6875 35.3125 C-12.04088118 32.95911882 -11.98963266 30.23387504 -12.1328125 27.00390625 C-12.11903971 20.93699171 -12.03536566 14.87312307 -11.75 8.8125 C-11.70359375 7.76707031 -11.6571875 6.72164063 -11.609375 5.64453125 C-11 3 -11 3 -9.1875 1.1484375 C-6.09122955 -0.47710449 -3.4353997 -0.19819614 0 0 Z " fill="#2B9B31" transform="translate(257,358)"/>
<path d="M0 0 C0.33 0.66 0.66 1.32 1 2 C0.07421875 4.2421875 0.07421875 4.2421875 -1.3125 6.875 C-1.98732422 8.17050781 -1.98732422 8.17050781 -2.67578125 9.4921875 C-3.11277344 10.31976563 -3.54976562 11.14734375 -4 12 C-4.67025088 13.3315352 -5.33830842 14.6641907 -6 16 C-6.66 16 -7.32 16 -8 16 C-9.73699208 22.90144173 -10.26584321 29.72481318 -10.375 36.8125 C-10.40078125 37.62436768 -10.4265625 38.43623535 -10.453125 39.27270508 C-10.47090883 44.67176595 -9.57786656 47.71580185 -6 52 C-4.68441297 53.02323436 -3.35622245 54.03126968 -2 55 C-2 55.66 -2 56.32 -2 57 C-0.02 57.33 1.96 57.66 4 58 C4.33 60.31 4.66 62.62 5 65 C5.99 65 6.98 65 8 65 C8 65.99 8 66.98 8 68 C7.34 68 6.68 68 6 68 C5.67 68.99 5.34 69.98 5 71 C5.99 71 6.98 71 8 71 C8 71.99 8 72.98 8 74 C8.99 73.01 9.98 72.02 11 71 C12 72 12 72 12.09765625 73.85424805 C12.08605469 74.64871338 12.07445312 75.44317871 12.0625 76.26171875 C12.05476563 77.13376953 12.04703125 78.00582031 12.0390625 78.90429688 C12.0132949 80.74023824 11.98725913 82.57617587 11.9609375 84.41210938 C11.9199354 89.06926494 12.02715982 93.41701073 13 98 C13.99 98.33 14.98 98.66 16 99 C18.32265612 101.58072903 19 102.45176068 19 106 C19.99 106.33 20.98 106.66 22 107 C22 107.66 22 108.32 22 109 C23.32 109.33 24.64 109.66 26 110 C26 110.66 26 111.32 26 112 C26.66 112 27.32 112 28 112 C31.06242216 116.84060277 32.53411505 120.29290936 33 126 C33.66 126 34.32 126 35 126 C35.10957031 126.59167969 35.21914063 127.18335938 35.33203125 127.79296875 C36.27179871 132.47652529 37.37809665 135.94796756 40 140 C40 140.99 40 141.98 40 143 C40.99 143.33 41.98 143.66 43 144 C43 144.99 43 145.98 43 147 C43.66 147.66 44.32 148.32 45 149 C44.67 149.66 44.34 150.32 44 151 C45.485 151.99 45.485 151.99 47 153 C42.37746386 152.36640914 38.49613526 150.51765012 34.375 148.4375 C33.31321533 147.90177368 33.31321533 147.90177368 32.22998047 147.35522461 C26.01613589 144.14114276 20.43283517 140.41735196 15 136 C14.17242187 135.34773437 13.34484375 134.69546875 12.4921875 134.0234375 C-0.96679675 122.75839425 -9.35399667 107.67181819 -15.25 91.375 C-15.49661377 90.69453613 -15.74322754 90.01407227 -15.99731445 89.31298828 C-22.48256768 70.57282728 -22.4089869 48.72593241 -16 30 C-15.61457031 28.77152344 -15.22914063 27.54304688 -14.83203125 26.27734375 C-11.53036755 16.28687269 -7.01668374 7.84217595 0 0 Z " fill="#116888" transform="translate(234,296)"/>
<path d="M0 0 C4.89070084 3.19844747 10.15522585 8.84157014 11.7578125 14.5546875 C13.09579725 24.14357822 13.8996898 34.91368444 8.7109375 43.4296875 C4.52627584 48.76039972 -1.05646209 53.6545011 -7.96118164 54.74438477 C-25.36040132 56.02333322 -25.36040132 56.02333322 -32.1171875 50.31640625 C-39.83676512 41.79343367 -42.25939797 34.01578546 -42.0234375 22.55859375 C-41.57828074 14.75867308 -39.35413343 9.05317473 -33.84375 3.41015625 C-24.15083417 -3.99237305 -11.15375684 -5.18649693 0 0 Z " fill="#319634" transform="translate(752.84375,288.58984375)"/>
<path d="M0 0 C5.99881405 3.82394521 9.90226723 7.33079702 12.30078125 14.21484375 C14.43279381 24.01705536 14.30085613 35.51066368 8.9609375 44.25 C5.0720532 48.59556062 0.17067355 53.8001339 -5.91015625 54.44995117 C-8.20697827 54.55639052 -10.48987621 54.5718921 -12.7890625 54.5625 C-13.94921875 54.58666992 -13.94921875 54.58666992 -15.1328125 54.61132812 C-21.72058857 54.61685478 -27.24694206 53.48909176 -32.46484375 49.3046875 C-40.08789993 40.49792694 -41.90763434 32.67586723 -41.44140625 21.12890625 C-40.49878002 12.04125722 -36.1420533 6.71379161 -29.41796875 0.84375 C-21.08916812 -4.73613613 -8.73657445 -4.67682796 0 0 Z " fill="#2B942F" transform="translate(634.0390625,288.75)"/>
<path d="M0 0 C1.9375 1.625 1.9375 1.625 3 4 C3.1875 7.25 3.1875 7.25 3 10 C1.02 10.33 -0.96 10.66 -3 11 C-3.495 9.02 -3.495 9.02 -4 7 C-4.99 7 -5.98 7 -7 7 C-7.33 7.66 -7.66 8.32 -8 9 C-9.66666667 9.66666667 -11.33333333 10.33333333 -13 11 C-13.33 11.66 -13.66 12.32 -14 13 C-16.31 13 -18.62 13 -21 13 C-21 16.3 -21 19.6 -21 23 C-19.68 23 -18.36 23 -17 23 C-16.67 21.02 -16.34 19.04 -16 17 C-4.57142857 14.71428571 -4.57142857 14.71428571 0 17 C0.6328125 19.94140625 0.6328125 19.94140625 1.125 23.5625 C1.29257812 24.76003906 1.46015625 25.95757812 1.6328125 27.19140625 C1.75398438 28.11824219 1.87515625 29.04507812 2 30 C0.68 30.33 -0.64 30.66 -2 31 C-2 29.68 -2 28.36 -2 27 C-3.96756452 27.03122943 -3.96756452 27.03122943 -6 28 C-7.18335395 30.88318775 -7.18335395 30.88318775 -8 34 C-10 37 -10 37 -12.3828125 37.51171875 C-13.28773438 37.56972656 -14.19265625 37.62773437 -15.125 37.6875 C-16.49011719 37.78611328 -16.49011719 37.78611328 -17.8828125 37.88671875 C-18.93082031 37.94279297 -18.93082031 37.94279297 -20 38 C-20.33 39.32 -20.66 40.64 -21 42 C-21.99 42 -22.98 42 -24 42 C-24 42.66 -24 43.32 -24 44 C-25.98 44.495 -25.98 44.495 -28 45 C-28 45.99 -28 46.98 -28 48 C-29.93823179 50.39971554 -30.99390037 50.99796679 -34 52 C-36.33822147 54.20460881 -37.86128992 55.84763936 -38.25390625 59.109375 C-38.25042157 61.07473677 -38.1329399 63.03913641 -38 65 C-39.485 64.505 -39.485 64.505 -41 64 C-41.495 61.525 -41.495 61.525 -42 59 C-46.11041184 59.66750278 -49.86485593 60.34729216 -53.5 62.4375 C-55.95425549 66.63018646 -55.835183 71.22030713 -56 76 C-51.545 75.505 -51.545 75.505 -47 75 C-47 77.97 -47 80.94 -47 84 C-46.01 84 -45.02 84 -44 84 C-44.02320313 84.61488281 -44.04640625 85.22976563 -44.0703125 85.86328125 C-44.08835938 86.67152344 -44.10640625 87.47976563 -44.125 88.3125 C-44.14820313 89.11300781 -44.17140625 89.91351563 -44.1953125 90.73828125 C-44.15817322 93.28388576 -44.15817322 93.28388576 -42 96 C-42.99 96 -43.98 96 -45 96 C-45 95.34 -45 94.68 -45 94 C-45.99 94 -46.98 94 -48 94 C-48.33 91.69 -48.66 89.38 -49 87 C-49.886875 86.938125 -50.77375 86.87625 -51.6875 86.8125 C-56.80176888 85.55805669 -58.8925192 82.35834661 -62.12109375 78.3984375 C-64.54716804 74.01031976 -64.57038367 70.73554674 -64.4375 65.8125 C-64.4271875 64.97549561 -64.416875 64.13849121 -64.40625 63.27612305 C-64.23804531 56.87754225 -63.27088162 51.01513287 -61 45 C-60.34 45 -59.68 45 -59 45 C-58.82791016 44.16275391 -58.82791016 44.16275391 -58.65234375 43.30859375 C-57.91078504 40.6842752 -56.81875329 38.48181271 -55.5625 36.0625 C-54.23952062 33.50737266 -53.0030327 31.0076433 -51.94140625 28.33203125 C-49.77095512 22.95543654 -45.45891314 19.50545022 -41.1484375 15.8359375 C-39.71772293 14.61332687 -38.30588196 13.36827459 -36.9140625 12.1015625 C-30.0152491 5.83712275 -25.14959834 3.85638856 -15.83203125 3.31640625 C-9.80590166 2.64314212 -6.4423385 -0.8508749 0 0 Z " fill="#2B9931" transform="translate(287,267)"/>
<path d="M0 0 C5.15625 -0.061875 10.3125 -0.12375 15.625 -0.1875 C17.24100098 -0.21481201 18.85700195 -0.24212402 20.52197266 -0.27026367 C22.44855713 -0.28150269 22.44855713 -0.28150269 24.4140625 -0.29296875 C25.7232666 -0.3086792 27.0324707 -0.32438965 28.38134766 -0.34057617 C33.86646558 0.17566587 36.9718976 1.92516567 40.75 5.875 C45.0060926 11.78623972 45.87707079 16.79705613 45 24 C43.65233564 28.47945256 41.73529644 31.79400789 37.875 34.5 C35 36 35 36 33 36 C33.35191406 36.64324219 33.70382812 37.28648437 34.06640625 37.94921875 C35.11238117 39.86365327 36.15650146 41.77910173 37.19921875 43.6953125 C38.44676424 45.98473437 39.69927213 48.27091091 40.95703125 50.5546875 C41.58996094 51.71226562 42.22289062 52.86984375 42.875 54.0625 C43.47054687 55.14660156 44.06609375 56.23070312 44.6796875 57.34765625 C46 60 46 60 46 62 C41.38 62 36.76 62 32 62 C30.56163015 59.29212552 29.12427908 56.58371839 27.6875 53.875 C27.28337891 53.11445313 26.87925781 52.35390625 26.46289062 51.5703125 C26.06650391 50.82265625 25.67011719 50.075 25.26171875 49.3046875 C24.8651709 48.57217773 24.46862305 47.83966797 24.06005859 47.08496094 C23 45 23 45 21.70703125 41.5078125 C21.14371094 40.68023437 20.58039062 39.85265625 20 39 C17.36 38.67 14.72 38.34 12 38 C12 45.92 12 53.84 12 62 C8.04 62 4.08 62 0 62 C0 41.54 0 21.08 0 0 Z " fill="#384343" transform="translate(871,361)"/>
<path d="M0 0 C5.32125 -0.0825 10.6425 -0.165 16.125 -0.25 C17.79320801 -0.28641602 19.46141602 -0.32283203 21.18017578 -0.36035156 C22.51854164 -0.37204587 23.85692184 -0.38223594 25.1953125 -0.390625 C25.877146 -0.41108887 26.55897949 -0.43155273 27.26147461 -0.45263672 C33.72538334 -0.45730549 37.03431343 2.41890428 41.875 6.3125 C45.28707035 10.59409795 44.51100073 16.14691066 44.46875 21.34375 C43.80539075 26.51795217 42.31142139 29.81652216 38.4375 33.3125 C36 35 36 35 34 36 C36.07864444 41.90143881 39.42789342 47.18428363 42.54296875 52.58203125 C42.98511719 53.36191406 43.42726563 54.14179688 43.8828125 54.9453125 C44.28902832 55.65187988 44.69524414 56.35844727 45.11376953 57.08642578 C46 59 46 59 46 62 C34.62171096 63.19946824 34.62171096 63.19946824 31.3046875 60.74609375 C29.95604882 58.56280805 28.98870801 56.37156312 28 54 C27.09959248 52.02352134 26.17083906 50.06739725 25.20629883 48.12133789 C24.53680171 46.76838576 23.89736221 45.40006221 23.29174805 44.01733398 C22.28661686 41.79806991 22.28661686 41.79806991 20 39 C17.36 38.67 14.72 38.34 12 38 C12 45.92 12 53.84 12 62 C8.04 62 4.08 62 0 62 C0 41.54 0 21.08 0 0 Z " fill="#374242" transform="translate(583,361)"/>
<path d="M0 0 C4.29 0 8.58 0 13 0 C18.37503853 9.84260302 23.36474309 19.78794962 28 30 C28.49628906 29.00742187 28.99257813 28.01484375 29.50390625 26.9921875 C36.25195312 13.49609375 36.25195312 13.49609375 43 0 C47.62 0 52.24 0 57 0 C57 18.15 57 36.3 57 55 C53.37 55 49.74 55 46 55 C46 43.12 46 31.24 46 19 C45.34 19 44.68 19 44 19 C43.76539063 20.29808594 43.53078125 21.59617187 43.2890625 22.93359375 C42.13056686 28.14682411 39.97299039 32.43077026 37.375 37.0625 C36.95476563 37.83271484 36.53453125 38.60292969 36.1015625 39.39648438 C35.0776448 41.26978835 34.04023627 43.13570824 33 45 C29.7 45 26.4 45 23 45 C21.15692045 41.40073658 19.32723483 37.79482969 17.5 34.1875 C16.97535156 33.16333984 16.45070313 32.13917969 15.91015625 31.08398438 C15.41386719 30.10107422 14.91757812 29.11816406 14.40625 28.10546875 C13.94541016 27.19949951 13.48457031 26.29353027 13.00976562 25.36010742 C12 23 12 23 12 20 C11.34 20 10.68 20 10 20 C10 31.55 10 43.1 10 55 C6.7 55 3.4 55 0 55 C0 36.85 0 18.7 0 0 Z " fill="#2A942E" transform="translate(774,287)"/>
<path d="M0 0 C1.93166016 0.01740234 1.93166016 0.01740234 3.90234375 0.03515625 C5.19269531 0.04417969 6.48304688 0.05320312 7.8125 0.0625 C8.81152344 0.07410156 9.81054688 0.08570313 10.83984375 0.09765625 C13.09739385 4.43295157 14.96832834 8.82801476 16.65234375 13.41015625 C16.91023682 14.10455811 17.16812988 14.79895996 17.43383789 15.5144043 C19.51814959 21.15501352 21.52680456 26.82161604 23.50561523 32.5 C24.88199943 36.4363956 26.30154338 40.35211482 27.7734375 44.25390625 C28.09642822 45.11330811 28.41941895 45.97270996 28.75219727 46.8581543 C29.38124855 48.52578633 30.01562995 50.19142012 30.65600586 51.85473633 C30.94096924 52.61165771 31.22593262 53.3685791 31.51953125 54.1484375 C31.90214111 55.14870972 31.90214111 55.14870972 32.29248047 56.16918945 C32.83984375 58.09765625 32.83984375 58.09765625 32.83984375 62.09765625 C28.54984375 62.09765625 24.25984375 62.09765625 19.83984375 62.09765625 C15.83984375 52.72265625 15.83984375 52.72265625 15.83984375 47.09765625 C7.91984375 47.09765625 -0.00015625 47.09765625 -8.16015625 47.09765625 C-8.63453125 49.20140625 -9.10890625 51.30515625 -9.59765625 53.47265625 C-11.03515625 59.84765625 -11.03515625 59.84765625 -12.16015625 62.09765625 C-16.45015625 62.09765625 -20.74015625 62.09765625 -25.16015625 62.09765625 C-23.62020455 54.19370528 -21.1291808 46.75361987 -18.47265625 39.16015625 C-18.02407208 37.8684953 -17.5755045 36.57682859 -17.12695312 35.28515625 C-13.70151808 25.46372294 -10.0536955 15.74301483 -6.16015625 6.09765625 C-5.78890625 5.13859375 -5.41765625 4.17953125 -5.03515625 3.19140625 C-3.68017243 -0.05087647 -3.73699469 0.11548191 0 0 Z " fill="#3A4545" transform="translate(830.16015625,360.90234375)"/>
<path d="M0 0 C4.29 0 8.58 0 13 0 C13.01458252 1.27641357 13.02916504 2.55282715 13.04418945 3.86791992 C13.1022354 8.61120379 13.17946828 13.35401607 13.26245117 18.09692383 C13.29567083 20.14827816 13.32371197 22.19972325 13.34643555 24.2512207 C13.3800357 27.20302949 13.43235476 30.15400886 13.48828125 33.10546875 C13.49467117 34.02023483 13.5010611 34.93500092 13.50764465 35.87748718 C13.62116977 40.81278316 13.9946705 43.89209992 17 48 C17 48.66 17 49.32 17 50 C22.51003421 51.37750855 29.60676425 52.06211955 35 50 C36.33903214 47.65245602 36.33903214 47.65245602 37 45 C37.33 44.01 37.66 43.02 38 42 C38.11294746 40.60420727 38.17589187 39.20400091 38.20532227 37.80395508 C38.2352401 36.54298759 38.2352401 36.54298759 38.26576233 35.25654602 C38.29083107 33.90172371 38.29083107 33.90172371 38.31640625 32.51953125 C38.33718735 31.59154221 38.35796844 30.66355316 38.37937927 29.70744324 C38.44477323 26.7425376 38.50371262 23.77754328 38.5625 20.8125 C38.60569487 18.8027252 38.64930947 16.79295937 38.69335938 14.78320312 C38.80044427 9.85555968 38.90174045 4.92782701 39 0 C42.96 0 46.92 0 51 0 C51.07445886 6.26218093 51.12874818 12.52410102 51.16479492 18.78662109 C51.17983076 20.91459648 51.20026483 23.04254114 51.22631836 25.17041016 C51.26293089 28.23868417 51.27977881 31.30654649 51.29296875 34.375 C51.30845261 35.31802979 51.32393646 36.26105957 51.33988953 37.23266602 C51.34158723 43.97818955 50.58688515 49.83396145 46.16796875 55.2421875 C45.51441406 55.78101563 44.86085938 56.31984375 44.1875 56.875 C43.21876953 57.70644531 43.21876953 57.70644531 42.23046875 58.5546875 C34.4757052 63.57966563 23.89352109 63.16705021 15 62 C9.80240892 60.16055026 6.49067632 57.18483547 3.5625 52.5625 C0.46067282 45.49033402 -0.28473033 39.77404336 -0.1953125 32.12890625 C-0.1924826 31.206577 -0.18965271 30.28424774 -0.18673706 29.33396912 C-0.17560974 26.41000987 -0.15051912 23.48636549 -0.125 20.5625 C-0.11496057 18.57096799 -0.1058364 16.57943114 -0.09765625 14.58789062 C-0.07569483 9.7251405 -0.04121673 4.8626235 0 0 Z " fill="#384345" transform="translate(697,361)"/>
<path d="M0 0 C10 0 10 0 12.75390625 1.4296875 C15.93565052 5.07070964 18.4285929 9.00024108 20.9375 13.125 C21.43701172 13.929375 21.93652344 14.73375 22.45117188 15.5625 C26.02729394 21.33966752 29.50393971 27.17323285 33 33 C33.33 22.11 33.66 11.22 34 0 C37.63 0 41.26 0 45 0 C45 18.48 45 36.96 45 56 C35 56 35 56 32.29174805 53.6484375 C31.62183838 52.56820312 30.95192871 51.48796875 30.26171875 50.375 C29.88819778 49.79468018 29.51467682 49.21436035 29.12983704 48.61645508 C27.94800369 46.76350363 26.81823164 44.88447217 25.6875 43 C24.91145644 41.764877 24.13218282 40.53177729 23.34960938 39.30078125 C21.19365004 35.89083658 19.09750636 32.44624045 17 29 C14.525 25.04 14.525 25.04 12 21 C11.67 32.22 11.34 43.44 11 55 C7.37 55 3.74 55 0 55 C0 36.85 0 18.7 0 0 Z " fill="#2D9631" transform="translate(657,287)"/>
<path d="M0 0 C0.97066406 0.38478516 0.97066406 0.38478516 1.9609375 0.77734375 C7.20526545 3.04858615 10.44599469 5.83646752 13 11 C13.8125 14.4375 13.8125 14.4375 14 17 C6.62603306 19.74380165 6.62603306 19.74380165 3 19 C1.26776336 17.05651499 -0.39881603 15.05279996 -2 13 C-6.20388564 10.36929402 -10.18703049 10.49690214 -15 11 C-19.39888583 12.26890937 -21.44342453 14.18825514 -23.875 17.9375 C-27.63880294 25.4529253 -26.84492044 33.14971596 -24.4375 41 C-22.73557174 45.1095341 -21.18985224 47.66477433 -17.0625 49.48828125 C-11.97424185 50.75070893 -7.05478579 50.51369645 -2 49.25 C0.37861189 47.76336757 1.02594265 46.59748627 2 44 C2.495 43.01 2.495 43.01 3 42 C10.625 43.75 10.625 43.75 14 46 C13.57829703 50.7793003 11.42736644 53.80726989 8 57 C-0.32234048 63.05113645 -7.96570844 64.12736951 -18.19921875 62.69140625 C-25.92788354 60.72884643 -31.56200857 55.38297073 -36 49 C-41.03839012 39.51423327 -41.55201789 28.44759842 -38.80859375 18.1171875 C-35.37217632 9.11941818 -28.63697563 2.81848781 -20.125 -1.4375 C-13.30775517 -2.66460407 -6.4138664 -2.85060729 0 0 Z " fill="#394444" transform="translate(675,361)"/>
<path d="M0 0 C2.55487122 2.55487122 4.42791074 4.92663948 6.125 8.125 C5.875 11 5.875 11 5.125 13.125 C1.42792337 14.35735888 -2.03797009 14.84103804 -5.875 14.125 C-8.125 11.75 -8.125 11.75 -9.875 9.125 C-14.27839267 6.32631442 -18.82987258 6.61638553 -23.875 7.125 C-28.98145923 9.01216972 -30.56889328 12.43042561 -32.875 17.125 C-35.10868411 24.25789792 -34.85198095 31.93197797 -31.6875 38.6875 C-29.5674504 42.35636361 -28.06277333 44.82213719 -23.875 46.125 C-17.89085253 46.80775508 -12.9695615 46.64267342 -7.875 43.125 C-5.53174336 40.57360147 -5.53174336 40.57360147 -3.875 38.125 C-0.31719804 38.73490891 2.8078589 39.7033681 6.125 41.125 C6.36784761 44.03411202 6.38937583 45.68134431 4.875 48.22265625 C-0.75385599 54.54255483 -6.75657917 58.62396396 -15.35546875 59.328125 C-24.22344039 59.48168295 -31.93491651 57.98551495 -38.875 52.125 C-46.53986047 42.95722571 -48.50342991 33.52472503 -48.21875 21.74609375 C-47.38619828 12.97591825 -43.59991767 5.8456294 -36.875 0.125 C-24.44974386 -7.57138362 -12.44376898 -8.11550151 0 0 Z " fill="#3A4345" transform="translate(540.875,364.875)"/>
<path d="M0 0 C1.79244141 0.01740234 1.79244141 0.01740234 3.62109375 0.03515625 C5.41740234 0.04869141 5.41740234 0.04869141 7.25 0.0625 C8.17683594 0.07410156 9.10367188 0.08570313 10.05859375 0.09765625 C17.07063268 17.73341445 17.07063268 17.73341445 18.55859375 23.09765625 C20.36208994 29.5743627 22.97149514 35.77730676 25.4375 42.0234375 C25.7173877 42.73322754 25.99727539 43.44301758 26.28564453 44.17431641 C26.92181153 45.75729923 27.59295823 47.32617908 28.2734375 48.890625 C29.05859375 51.09765625 29.05859375 51.09765625 29.05859375 55.09765625 C25.42859375 55.09765625 21.79859375 55.09765625 18.05859375 55.09765625 C14.05859375 47.72265625 14.05859375 47.72265625 14.05859375 42.09765625 C6.79859375 42.09765625 -0.46140625 42.09765625 -7.94140625 42.09765625 C-8.27140625 45.06765625 -8.60140625 48.03765625 -8.94140625 51.09765625 C-9.60140625 52.41765625 -10.26140625 53.73765625 -10.94140625 55.09765625 C-14.90140625 55.09765625 -18.86140625 55.09765625 -22.94140625 55.09765625 C-19.56100868 43.81818649 -15.73616114 32.74807015 -11.63769531 21.71020508 C-10.67381061 19.11273974 -9.71740703 16.51260026 -8.76171875 13.91210938 C-8.15016966 12.2563515 -7.53820687 10.60074636 -6.92578125 8.9453125 C-6.6403949 8.16946304 -6.35500854 7.39361359 -6.06097412 6.59425354 C-3.65023279 0.12118967 -3.65023279 0.12118967 0 0 Z " fill="#2C9331" transform="translate(881.94140625,286.90234375)"/>
<path d="M0 0 C3.63411268 2.93821876 5.88972734 6.18884528 7.9375 10.375 C7.9375 11.035 7.9375 11.695 7.9375 12.375 C4.14164534 14.16128454 1.13091188 15.01312789 -3.0625 14.375 C-4.6875 12 -4.6875 12 -6.0625 9.375 C-9.56984578 6.64706439 -13.81438782 6.87473969 -18.0625 7.375 C-22.11445953 8.62175678 -24.2796862 10.17376314 -26.4375 13.75 C-29.18084159 19.99744177 -29.27867345 27.39141146 -27.296875 33.8828125 C-25.51933876 37.70592617 -23.73888254 40.17439447 -20.0625 42.375 C-14.97179264 43.21712894 -10.4756039 43.2113268 -6 40.5625 C-3.93421988 38.3303862 -3.93421988 38.3303862 -2.0625 35.375 C1.2375 36.365 4.5375 37.355 7.9375 38.375 C6.1508359 44.27099151 2.26259753 48.71421605 -2.6875 52.25 C-9.31996845 55.39169558 -16.85549736 55.27106932 -23.8125 53.1875 C-31.58152785 50.22461943 -36.25527694 44.61740479 -40.0625 37.375 C-42.32759214 29.28930746 -42.60931716 18.50448739 -39 10.8125 C-35.49928484 4.95496534 -30.80851465 -0.77314768 -24.21484375 -3.1953125 C-15.69204026 -4.89677962 -7.66342356 -4.06630638 0 0 Z " fill="#2F9633" transform="translate(580.0625,289.625)"/>
<path d="M0 0 C11.55 0 23.1 0 35 0 C35 2.97 35 5.94 35 9 C26.75 9 18.5 9 10 9 C10 13.29 10 17.58 10 22 C17.26 22 24.52 22 32 22 C32 25.3 32 28.6 32 32 C24.74 32 17.48 32 10 32 C10 36.62 10 41.24 10 46 C18.58 46 27.16 46 36 46 C36 49.3 36 52.6 36 56 C24.12 56 12.24 56 0 56 C0 37.52 0 19.04 0 0 Z " fill="#329736" transform="translate(498,287)"/>
<path d="M0 0 C3.96 0 7.92 0 12 0 C12 16.83 12 33.66 12 51 C20.91 51 29.82 51 39 51 C39 54.63 39 58.26 39 62 C26.13 62 13.26 62 0 62 C0 41.54 0 21.08 0 0 Z " fill="#374143" transform="translate(761,361)"/>
<path d="M0 0 C4.6418625 2.41495618 7.7560529 5.6136683 10.08203125 10.265625 C11.25904612 27.12973964 11.25904612 27.12973964 6.08203125 34.265625 C3.45703125 36.203125 3.45703125 36.203125 1.08203125 37.265625 C0.09203125 37.760625 0.09203125 37.760625 -0.91796875 38.265625 C-5.38857953 38.67707944 -9.53125896 38.82030891 -13.73046875 37.140625 C-17.32434759 34.06015743 -20.33494571 31.19408583 -21.73046875 26.578125 C-21.79234375 25.485 -21.85421875 24.391875 -21.91796875 23.265625 C-21.97984375 22.42644531 -22.04171875 21.58726562 -22.10546875 20.72265625 C-22.383672 14.41961397 -21.97522653 9.30300685 -17.91796875 4.265625 C-12.65196555 -0.51105932 -6.93399984 -2.65497346 0 0 Z " fill="#FAFCFA" transform="translate(625.91796875,295.734375)"/>
<path d="M0 0 C5.54648833 1.98551333 9.38327402 5.76654805 12 11 C12.15144564 13.59787529 12.23136981 16.15108821 12.25 18.75 C12.270625 19.45382812 12.29125 20.15765625 12.3125 20.8828125 C12.35318867 26.35543864 11.31177401 30.46547693 7.5 34.64453125 C2.52783782 38.51608462 -0.7122517 39.41918322 -7 39 C-12.15545955 37.33976726 -15.14908903 35.64592899 -18 31 C-20.97433702 23.26672376 -20.8882321 15.75989839 -18.05859375 8.015625 C-14.24942421 0.76274129 -7.58563499 -0.89535364 0 0 Z " fill="#FBFDFB" transform="translate(742,295)"/>
<path d="M0 0 C4.29 0 8.58 0 13 0 C13 20.46 13 40.92 13 62 C8.71 62 4.42 62 0 62 C0 41.54 0 21.08 0 0 Z " fill="#3C4747" transform="translate(557,361)"/>
<path d="M0 0 C4.29 0 8.58 0 13 0 C19.42857143 10.98214286 19.42857143 10.98214286 19 17 C18.34 17 17.68 17 17 17 C16.34 18.32 15.68 19.64 15 21 C14.67 20.34 14.34 19.68 14 19 C12.68 19.33 11.36 19.66 10 20 C10 31.55 10 43.1 10 55 C6.7 55 3.4 55 0 55 C0 36.85 0 18.7 0 0 Z " fill="#2B912F" transform="translate(774,287)"/>
<path d="M0 0 C3.63 0 7.26 0 11 0 C11 18.48 11 36.96 11 56 C7.37 56 3.74 56 0 56 C0 37.52 0 19.04 0 0 Z " fill="#2F9433" transform="translate(842,287)"/>
<path d="M0 0 C4.29 0 8.58 0 13 0 C14.17076229 2.95677211 15.33676671 5.91526743 16.5 8.875 C16.83386719 9.71675781 17.16773438 10.55851562 17.51171875 11.42578125 C17.82753906 12.23144531 18.14335938 13.03710938 18.46875 13.8671875 C18.90864258 14.98262939 18.90864258 14.98262939 19.35742188 16.12060547 C20 18 20 18 20 20 C19.34 20 18.68 20 18 20 C18 19.01 18 18.02 18 17 C16.68 17.33 15.36 17.66 14 18 C14 18.99 14 19.98 14 21 C13.34 21.33 12.68 21.66 12 22 C12.144375 23.2375 12.28875 24.475 12.4375 25.75 C12.51871094 26.44609375 12.59992187 27.1421875 12.68359375 27.859375 C13.01301137 30.32991923 13.01301137 30.32991923 14 34 C9.05 34 4.1 34 -1 34 C-0.73958333 31.00520833 -0.47916667 28.01041667 -0.21875 25.015625 C-0.04947717 22.6820782 0 20.33967818 0 18 C-3.62885324 17.84850702 -3.62885324 17.84850702 -7 19 C-5.17272355 12.36920137 -2.91484678 6.2317414 0 0 Z " fill="#319535" transform="translate(879,287)"/>
<path d="M0 0 C0.28875 0.804375 0.5775 1.60875 0.875 2.4375 C1.73262568 5.1326468 1.73262568 5.1326468 4 6 C4 5.01 4 4.02 4 3 C5.32 2.34 6.64 1.68 8 1 C8.25 3.3125 8.25 3.3125 8 6 C5.95575462 7.97610386 4.8823175 9 2 9 C1.67 9.66 1.34 10.32 1 11 C1.99 11 2.98 11 4 11 C4.33 11.66 4.66 12.32 5 13 C5.99 13.33 6.98 13.66 8 14 C8 14.66 8 15.32 8 16 C11.3 16.66 14.6 17.32 18 18 C18.495 19.485 18.495 19.485 19 21 C13.5814234 21.22577402 9.22512279 20.46670113 4 19 C4 21.31 4 23.62 4 26 C3.195625 26.20625 2.39125 26.4125 1.5625 26.625 C0.2940625 27.305625 0.2940625 27.305625 -1 28 C-1.89830839 31.05272465 -1.89830839 31.05272465 -2 34 C-2.33 34 -2.66 34 -3 34 C-2.505 29.545 -2.505 29.545 -2 25 C-2.99 25 -3.98 25 -5 25 C-5 22.03 -5 19.06 -5 16 C-5.66 16.33 -6.32 16.66 -7 17 C-9.3329866 17.04022391 -11.66706666 17.04320247 -14 17 C-14.78545181 7.03348923 -14.78545181 7.03348923 -11.625 2.875 C-7.46884355 -0.09368318 -5.10467931 -0.0945311 0 0 Z " fill="#0E6786" transform="translate(245,326)"/>
<path d="M0 0 C14.19642857 -0.53571429 14.19642857 -0.53571429 17.875 1.25 C20.86760941 5.12278865 20.68126221 8.33658881 20.69921875 13.125 C20 16 20 16 17.9453125 18.359375 C14.27208882 20.40546776 11.26113932 20.45112343 7.1875 20.25 C4.815625 20.1675 2.44375 20.085 0 20 C0 13.4 0 6.8 0 0 Z " fill="#F4F5F5" transform="translate(883,370)"/>
<path d="M0 0 C3.5578125 -0.12375 3.5578125 -0.12375 7.1875 -0.25 C7.92508545 -0.28641602 8.6626709 -0.32283203 9.42260742 -0.36035156 C12.88533451 -0.41833646 14.93367756 -0.03749802 17.95703125 1.671875 C20.44062781 4.50213035 20.62255951 5.78236146 20.5 9.5 C20.4896875 10.4384375 20.479375 11.376875 20.46875 12.34375 C19.93263645 15.38172677 19.12871725 16.7909538 17 19 C11.57364835 20.80878388 5.66885438 20.05200784 0 20 C0 13.4 0 6.8 0 0 Z " fill="#F3F4F4" transform="translate(595,370)"/>
<path d="M0 0 C0.33 0.33 0.66 0.66 1 1 C0.75 4.4375 0.75 4.4375 0 8 C-3 10 -3 10 -6 10 C-6.33 10.99 -6.66 11.98 -7 13 C-11.13882923 15.97995705 -12.7815561 17.07736152 -17.9375 16.75 C-18.948125 16.5025 -19.95875 16.255 -21 16 C-20.34 12.37 -19.68 8.74 -19 5 C-20.98 5 -22.96 5 -25 5 C-25 4.34 -25 3.68 -25 3 C-26.65 3 -28.3 3 -30 3 C-30 2.34 -30 1.68 -30 1 C-20.17591252 -3.33415624 -10.20625206 -2.45739285 0 0 Z " fill="#2A9B33" transform="translate(318,264)"/>
<path d="M0 0 C0.66 0 1.32 0 2 0 C3.17958694 3.22459272 4.34134131 6.45533436 5.5 9.6875 C5.83386719 10.59951172 6.16773438 11.51152344 6.51171875 12.45117188 C6.98544922 13.78051758 6.98544922 13.78051758 7.46875 15.13671875 C7.76201172 15.94842529 8.05527344 16.76013184 8.35742188 17.59643555 C9 20 9 20 9 25 C3.72 25 -1.56 25 -7 25 C-6.42958936 19.23755617 -5.29316462 14.05983041 -3.5 8.5625 C-3.27441406 7.84384766 -3.04882812 7.12519531 -2.81640625 6.38476562 C-1.14358313 1.14358313 -1.14358313 1.14358313 0 0 Z " fill="#F1F1F1" transform="translate(833,374)"/>
<path d="M0 0 C1.12148438 0.00322266 2.24296875 0.00644531 3.3984375 0.00976562 C4.5740625 0.01814453 5.7496875 0.02652344 6.9609375 0.03515625 C8.14429688 0.03966797 9.32765625 0.04417969 10.546875 0.04882812 C13.47661257 0.06064158 16.40625022 0.07711367 19.3359375 0.09765625 C17.5859375 3.97265625 17.5859375 3.97265625 15.3359375 5.09765625 C15.9959375 5.75765625 16.6559375 6.41765625 17.3359375 7.09765625 C17.9609375 9.72265625 17.9609375 9.72265625 18.3359375 12.09765625 C19.3259375 12.42765625 20.3159375 12.75765625 21.3359375 13.09765625 C21.3359375 13.75765625 21.3359375 14.41765625 21.3359375 15.09765625 C20.3459375 15.59265625 20.3459375 15.59265625 19.3359375 16.09765625 C19.9959375 16.42765625 20.6559375 16.75765625 21.3359375 17.09765625 C21.3359375 18.74765625 21.3359375 20.39765625 21.3359375 22.09765625 C18.0359375 22.09765625 14.7359375 22.09765625 11.3359375 22.09765625 C11.3359375 21.43765625 11.3359375 20.77765625 11.3359375 20.09765625 C10.6759375 20.75765625 10.0159375 21.41765625 9.3359375 22.09765625 C8.6759375 22.42765625 8.0159375 22.75765625 7.3359375 23.09765625 C6.0159375 22.10765625 4.6959375 21.11765625 3.3359375 20.09765625 C3.9753125 19.80890625 4.6146875 19.52015625 5.2734375 19.22265625 C7.48799829 18.26942174 7.48799829 18.26942174 8.3359375 16.09765625 C9.97956884 15.37606201 11.64644136 14.70414204 13.3359375 14.09765625 C13.6659375 11.78765625 13.9959375 9.47765625 14.3359375 7.09765625 C6.5801032 5.38770853 -0.73009518 4.84842167 -8.6640625 5.09765625 C-8.2890625 3.16015625 -8.2890625 3.16015625 -7.6640625 1.09765625 C-5.00228029 -0.23323485 -2.97666854 -0.01503368 0 0 Z " fill="#0E6786" transform="translate(303.6640625,257.90234375)"/>
<path d="M0 0 C0.33 0.66 0.66 1.32 1 2 C0.54367187 3.13308594 0.54367187 3.13308594 0.078125 4.2890625 C-2.46582941 10.68581742 -1.57532421 18.74564121 1 25 C3.21779308 28.34947517 5.0777268 30.6925756 9 32 C10.64371491 32.09329934 12.29114677 32.12995144 13.9375 32.125 C14.79214844 32.12757813 15.64679687 32.13015625 16.52734375 32.1328125 C18.82680852 32.00930254 20.79640348 31.64420687 23 31 C23 31.66 23 32.32 23 33 C19.41285616 35.39142922 17.80693331 35.21171941 13.5625 35.125 C11.86287109 35.09792969 11.86287109 35.09792969 10.12890625 35.0703125 C9.09636719 35.04710937 8.06382812 35.02390625 7 35 C3.10540926 34.78918149 3.10540926 34.78918149 0 36 C0 36.66 0 37.32 0 38 C0.66 38 1.32 38 2 38 C2 38.66 2 39.32 2 40 C-3.48189702 38.67105527 -6.9577509 34.53883938 -10 30 C-10.703125 27.23828125 -10.703125 27.23828125 -11 25 C-9.02 25 -7.04 25 -5 25 C-5 25.66 -5 26.32 -5 27 C-4.34 27 -3.68 27 -3 27 C-3 19.08 -3 11.16 -3 3 C-2.34 3 -1.68 3 -1 3 C-0.67 2.01 -0.34 1.02 0 0 Z " fill="#349639" transform="translate(606,301)"/>
<path d="M0 0 C0.99 0.33 1.98 0.66 3 1 C3.78369141 2.70239258 3.78369141 2.70239258 4.3515625 4.89453125 C4.66867187 6.08079102 4.66867187 6.08079102 4.9921875 7.29101562 C5.20101562 8.12310547 5.40984375 8.95519531 5.625 9.8125 C5.8415625 10.63298828 6.058125 11.45347656 6.28125 12.29882812 C7.21670579 15.8587571 8.10727738 19.42910953 9 23 C4.05 23 -0.9 23 -6 23 C-4.875 15.125 -4.875 15.125 -3.80859375 11.81640625 C-3.58623047 11.11708984 -3.36386719 10.41777344 -3.13476562 9.69726562 C-2.78961914 8.64055664 -2.78961914 8.64055664 -2.4375 7.5625 C-2.20353516 6.83095703 -1.96957031 6.09941406 -1.72851562 5.34570312 C-1.15732778 3.56219821 -0.57936877 1.78086417 0 0 Z " fill="#EDF5ED" transform="translate(884,298)"/>
<path d="M0 0 C0.66 0 1.32 0 2 0 C1.38722388 2.96175123 0.74627478 4.38058783 -1 7 C-1.66 7 -2.32 7 -3 7 C-3.433125 8.4540625 -3.433125 8.4540625 -3.875 9.9375 C-5 13 -5 13 -7 14 C-8.0409066 15.64142963 -9.04504326 17.30712215 -10 19 C-9.34 19.33 -8.68 19.66 -8 20 C-8.34879632 23.25543229 -9.02133261 24.01873107 -11.5625 26.25 C-12.366875 26.8275 -13.17125 27.405 -14 28 C-13.835 27.360625 -13.67 26.72125 -13.5 26.0625 C-12.96073333 24.19173179 -12.96073333 24.19173179 -13 23 C-14.1446875 23.2475 -14.1446875 23.2475 -15.3125 23.5 C-18 24 -18 24 -21 24 C-20.67 24.99 -20.34 25.98 -20 27 C-20.66 27.33 -21.32 27.66 -22 28 C-22.99 27.34 -23.98 26.68 -25 26 C-23.86280581 22.58841744 -22.95657056 21.88145399 -20 20 C-19.34 20 -18.68 20 -18 20 C-17.67 18.68 -17.34 17.36 -17 16 C-16.34 16 -15.68 16 -15 16 C-14.71125 15.195625 -14.4225 14.39125 -14.125 13.5625 C-13 11 -13 11 -11 10 C-10.67 9.01 -10.34 8.02 -10 7 C-9.34 7 -8.68 7 -8 7 C-7.67 7.66 -7.34 8.32 -7 9 C-6.51789063 8.3503125 -6.03578125 7.700625 -5.5390625 7.03125 C-4.90742188 6.1959375 -4.27578125 5.360625 -3.625 4.5 C-2.99851562 3.6646875 -2.37203125 2.829375 -1.7265625 1.96875 C-1.15679687 1.3190625 -0.58703125 0.669375 0 0 Z " fill="#116A81" transform="translate(388,402)"/>
<path d="M0 0 C2.9375 0.375 2.9375 0.375 6 1 C6.33 1.66 6.66 2.32 7 3 C7.99 3.33 8.98 3.66 10 4 C10 4.66 10 5.32 10 6 C13.3 6.66 16.6 7.32 20 8 C20.33 8.99 20.66 9.98 21 11 C15.5814234 11.22577402 11.22512279 10.46670113 6 9 C6 11.31 6 13.62 6 16 C5.195625 16.20625 4.39125 16.4125 3.5625 16.625 C2.2940625 17.305625 2.2940625 17.305625 1 18 C0.10169161 21.05272465 0.10169161 21.05272465 0 24 C-0.33 24 -0.66 24 -1 24 C-0.505 19.545 -0.505 19.545 0 15 C-0.99 15 -1.98 15 -3 15 C-3 12.03 -3 9.06 -3 6 C-2.67 6 -2.34 6 -2 6 C-2 8.64 -2 11.28 -2 14 C-0.35 14 1.3 14 3 14 C3 11.36 3 8.72 3 6 C2.01 6 1.02 6 0 6 C0 4.02 0 2.04 0 0 Z " fill="#106C7C" transform="translate(243,336)"/>
<path d="M0 0 C0.33 0 0.66 0 1 0 C1 18.15 1 36.3 1 55 C-2.63 55 -6.26 55 -10 55 C-10.33 42.46 -10.66 29.92 -11 17 C-10.01 17 -9.02 17 -8 17 C-8 28.88 -8 40.76 -8 53 C-5.36 53 -2.72 53 0 53 C0 35.51 0 18.02 0 0 Z " fill="#6EAD70" transform="translate(830,287)"/>
<path d="M0 0 C1.9375 1.625 1.9375 1.625 3 4 C3.1875 7.25 3.1875 7.25 3 10 C1.02 10.33 -0.96 10.66 -3 11 C-3.33 9.68 -3.66 8.36 -4 7 C-4.99 7 -5.98 7 -7 7 C-7.33 7.66 -7.66 8.32 -8 9 C-10.5625 9.625 -10.5625 9.625 -13 10 C-13 8.68 -13 7.36 -13 6 C-17.62 6 -22.24 6 -27 6 C-24.35864824 3.35864824 -22.92841279 3.71347963 -19.25 3.5625 C-12.22294748 3.11022248 -7.07227099 -0.93407353 0 0 Z " fill="#289539" transform="translate(287,267)"/>
<path d="M0 0 C4.95 0 9.9 0 15 0 C15.33 1.32 15.66 2.64 16 4 C15.01 4.495 15.01 4.495 14 5 C14 5.99 14 6.98 14 8 C12.06280622 8.05406122 10.12518079 8.09282025 8.1875 8.125 C7.10855469 8.14820313 6.02960937 8.17140625 4.91796875 8.1953125 C2 8 2 8 -1 6 C-0.649375 5.38125 -0.29875 4.7625 0.0625 4.125 C0.371875 3.42375 0.68125 2.7225 1 2 C0.67 1.34 0.34 0.68 0 0 Z " fill="#29932B" transform="translate(730,335)"/>
<path d="M0 0 C0.33 0.66 0.66 1.32 1 2 C0.07421875 4.2421875 0.07421875 4.2421875 -1.3125 6.875 C-1.98732422 8.17050781 -1.98732422 8.17050781 -2.67578125 9.4921875 C-3.11277344 10.31976563 -3.54976562 11.14734375 -4 12 C-4.67025088 13.3315352 -5.33830842 14.6641907 -6 16 C-6.66 16 -7.32 16 -8 16 C-10.29344655 25.90857976 -10.60146434 35.87929173 -11 46 C-11.33 46 -11.66 46 -12 46 C-12.06058594 44.83082031 -12.12117187 43.66164063 -12.18359375 42.45703125 C-12.26804034 40.90884386 -12.35268625 39.36066732 -12.4375 37.8125 C-12.47681641 37.04357422 -12.51613281 36.27464844 -12.55664062 35.48242188 C-12.73420423 32.29993571 -12.92473259 29.32923721 -13.63671875 26.21484375 C-14.08611896 23.47495214 -13.57775058 22.22895158 -12.375 19.75 C-11.99988281 18.97527344 -11.62476563 18.20054687 -11.23828125 17.40234375 C-10.62533203 16.21318359 -10.62533203 16.21318359 -10 15 C-9.60167969 14.21753906 -9.20335937 13.43507813 -8.79296875 12.62890625 C-6.29675372 7.9296824 -3.55309305 3.95916082 0 0 Z " fill="#20686D" transform="translate(234,296)"/>
<path d="M0 0 C0.66 0.99 1.32 1.98 2 3 C1.67 3.66 1.34 4.32 1 5 C1.18095448 8.39381976 1.45144616 11.76365056 1.77148438 15.14648438 C2.21280828 20.68078758 2.21280828 20.68078758 0 24 C-0.66 22.02 -1.32 20.04 -2 18 C-2.99 20.475 -2.99 20.475 -4 23 C-4.66 21.68 -5.32 20.36 -6 19 C-6.33 19.66 -6.66 20.32 -7 21 C-7.66 21 -8.32 21 -9 21 C-6.76686274 13.55620912 -3.59727921 6.88023305 0 0 Z " fill="#319636" transform="translate(812,297)"/>
<path d="M0 0 C-0.08188759 2.7841781 -0.60480788 4.53384796 -2.4140625 6.66796875 C-5.4835935 9.51438406 -7.1864619 10.91125039 -11.4375 11.375 C-12.283125 11.25125 -13.12875 11.1275 -14 11 C-14 6.25452058 -12.8055762 4.71326262 -10 1 C-6.78548731 -0.60725635 -3.56387464 -0.05748185 0 0 Z " fill="#2A8F2D" transform="translate(857,272)"/>
<path d="M0 0 C0.99 0.33 1.98 0.66 3 1 C4.3515625 3.94921875 4.3515625 3.94921875 5.625 7.6875 C6.05039062 8.90824219 6.47578125 10.12898438 6.9140625 11.38671875 C8 15 8 15 8.51953125 18.37109375 C8.67808594 19.23863281 8.83664062 20.10617187 9 21 C10.95163118 22.43637698 10.95163118 22.43637698 13 23 C12.67 24.65 12.34 26.3 12 28 C10.68 28 9.36 28 8 28 C4.5897997 24.19631505 4.25162012 19.51528006 3.46875 14.6484375 C2.93636142 11.64044203 2.0048151 8.88046994 1 6 C0.63079809 4.00630969 0.28674418 2.00720923 0 0 Z " fill="#0F6682" transform="translate(387,335)"/>
<path d="M0 0 C0.90105469 0.19464844 1.80210937 0.38929688 2.73046875 0.58984375 C3.76107422 0.82380859 3.76107422 0.82380859 4.8125 1.0625 C4.8125 2.7125 4.8125 4.3625 4.8125 6.0625 C1.5125 6.0625 -1.7875 6.0625 -5.1875 6.0625 C-5.1875 5.4025 -5.1875 4.7425 -5.1875 4.0625 C-5.8475 4.7225 -6.5075 5.3825 -7.1875 6.0625 C-8.1775 6.5575 -8.1775 6.5575 -9.1875 7.0625 C-10.5075 6.0725 -11.8275 5.0825 -13.1875 4.0625 C-12.548125 3.77375 -11.90875 3.485 -11.25 3.1875 C-9.03543921 2.23426549 -9.03543921 2.23426549 -8.1875 0.0625 C-4.80475734 -1.06508089 -3.41971777 -0.75500262 0 0 Z " fill="#116D7C" transform="translate(320.1875,273.9375)"/>
<path d="M0 0 C1.98 0 3.96 0 6 0 C7.32 3.3 8.64 6.6 10 10 C9.34 10.66 8.68 11.32 8 12 C7.60235737 13.98821313 7.26224651 15.98944339 7 18 C6.67 18 6.34 18 6 18 C5.9071875 16.14375 5.9071875 16.14375 5.8125 14.25 C5.40583619 10.73790344 5.30863846 10.25594409 2.4375 7.875 C1.633125 7.25625 0.82875 6.6375 0 6 C-0.3125 2.75 -0.3125 2.75 0 0 Z " fill="#116B7F" transform="translate(395,332)"/>
<path d="M0 0 C2.9375 0.375 2.9375 0.375 6 1 C6.33 1.66 6.66 2.32 7 3 C7.99 3.33 8.98 3.66 10 4 C10 4.66 10 5.32 10 6 C13.3 6.66 16.6 7.32 20 8 C20.33 8.99 20.66 9.98 21 11 C13.57142857 11.28571429 13.57142857 11.28571429 10 9 C10 8.34 10 7.68 10 7 C9.0925 6.87625 8.185 6.7525 7.25 6.625 C4.41029677 6.07890323 2.47409409 5.42736197 0 4 C0 2.68 0 1.36 0 0 Z " fill="#279344" transform="translate(243,336)"/>
<path d="M0 0 C0.226875 0.5775 0.45375 1.155 0.6875 1.75 C1.88348823 4.21772898 1.88348823 4.21772898 4.625 5.5625 C7.56002059 8.57475798 7.32823205 9.65442316 7.3125 13.75 C7.23227209 15.50126074 7.13560864 17.25215533 7 19 C6.34 19 5.68 19 5 19 C5.33 17.02 5.66 15.04 6 13 C5.34 13 4.68 13 4 13 C4 11.35 4 9.7 4 8 C3.01 8 2.02 8 1 8 C1 7.34 1 6.68 1 6 C0.34 6 -0.32 6 -1 6 C-1 6.99 -1 7.98 -1 9 C-0.34 9 0.32 9 1 9 C0.67 9.99 0.34 10.98 0 12 C-2.83374881 8.79663178 -3.5205537 6.21912747 -4 2 C-2.68 2 -1.36 2 0 2 C0 1.34 0 0.68 0 0 Z " fill="#29933A" transform="translate(394,334)"/>
<path d="M0 0 C0.928125 0.0825 1.85625 0.165 2.8125 0.25 C5.02259849 5.28411322 4.77745842 8.14110812 2.8125 13.25 C2.1525 13.91 1.4925 14.57 0.8125 15.25 C0.4825 14.26 0.1525 13.27 -0.1875 12.25 C-0.8475 11.59 -1.5075 10.93 -2.1875 10.25 C-1.5275 9.92 -0.8675 9.59 -0.1875 9.25 C-0.5175 7.27 -0.8475 5.29 -1.1875 3.25 C-2.8375 3.58 -4.4875 3.91 -6.1875 4.25 C-4.36434338 1.00883268 -3.82500054 0.30000004 0 0 Z M-0.1875 3.25 C0.8125 5.25 0.8125 5.25 0.8125 5.25 Z " fill="#29922D" transform="translate(886.1875,286.75)"/>
<path d="M0 0 C0.33 0.66 0.66 1.32 1 2 C0.34 2 -0.32 2 -1 2 C-1 2.66 -1 3.32 -1 4 C1.97 4.33 4.94 4.66 8 5 C4.61127367 8.58806317 1.23858668 11.45684799 -3 14 C-3.66 14 -4.32 14 -5 14 C-3.70700306 11.11562221 -2.34058637 9.12780579 0 7 C-0.99 7 -1.98 7 -3 7 C-2.67 5.68 -2.34 4.36 -2 3 C-3.32 3.33 -4.64 3.66 -6 4 C-6 3.34 -6 2.68 -6 2 C-4.02 1.34 -2.04 0.68 0 0 Z " fill="#166D82" transform="translate(362,428)"/>
<path d="M0 0 C4.43458973 1.3937282 6.87378374 3.60582235 10 7 C8.906875 7.0825 7.81375 7.165 6.6875 7.25 C2.96723336 7.63689209 2.96723336 7.63689209 1.0625 10.0625 C0.711875 10.701875 0.36125 11.34125 0 12 C-0.84304688 11.50886719 -0.84304688 11.50886719 -1.703125 11.0078125 C-4.26859964 9.88214506 -5.96842277 9.7931889 -8.75 9.875 C-9.94882812 9.90207031 -9.94882812 9.90207031 -11.171875 9.9296875 C-12.07679688 9.96449219 -12.07679688 9.96449219 -13 10 C-13 9.34 -13 8.68 -13 8 C-11.75283203 8.05220703 -11.75283203 8.05220703 -10.48046875 8.10546875 C-9.39378906 8.13253906 -8.30710937 8.15960938 -7.1875 8.1875 C-6.10855469 8.22230469 -5.02960937 8.25710938 -3.91796875 8.29296875 C-0.98051156 8.26536952 -0.98051156 8.26536952 0.88671875 6.48828125 C1.25410156 5.99714844 1.62148438 5.50601562 2 5 C1.34 4.34 0.68 3.68 0 3 C0 2.01 0 1.02 0 0 Z " fill="#3C973F" transform="translate(574,287)"/>
<path d="M0 0 C1.12148438 0.00322266 2.24296875 0.00644531 3.3984375 0.00976562 C4.5740625 0.01814453 5.7496875 0.02652344 6.9609375 0.03515625 C8.14429688 0.03966797 9.32765625 0.04417969 10.546875 0.04882812 C13.47661257 0.06064158 16.40625022 0.07711367 19.3359375 0.09765625 C19.3359375 0.42765625 19.3359375 0.75765625 19.3359375 1.09765625 C11.4159375 1.59265625 11.4159375 1.59265625 3.3359375 2.09765625 C3.3359375 2.75765625 3.3359375 3.41765625 3.3359375 4.09765625 C-2.6040625 4.59265625 -2.6040625 4.59265625 -8.6640625 5.09765625 C-8.3340625 3.77765625 -8.0040625 2.45765625 -7.6640625 1.09765625 C-5.00228029 -0.23323485 -2.97666854 -0.01503368 0 0 Z " fill="#1F6F79" transform="translate(303.6640625,257.90234375)"/>
<path d="M0 0 C0.70189453 0.00451172 1.40378906 0.00902344 2.12695312 0.01367188 C3.85550538 0.02543073 5.58401365 0.04336546 7.3125 0.0625 C7.3125 0.3925 7.3125 0.7225 7.3125 1.0625 C3.0225 1.0625 -1.2675 1.0625 -5.6875 1.0625 C-6.3475 2.3825 -7.0075 3.7025 -7.6875 5.0625 C-9.0796875 4.9696875 -9.0796875 4.9696875 -10.5 4.875 C-13.62879989 4.77227955 -13.62879989 4.77227955 -15.5 6.375 C-16.88205846 8.16726225 -16.88205846 8.16726225 -17.6875 11.0625 C-18.6775 10.7325 -19.6675 10.4025 -20.6875 10.0625 C-19.29552671 6.67993279 -17.8849504 5.22561318 -14.75 3.375 C-14.06035156 2.95863281 -13.37070312 2.54226563 -12.66015625 2.11328125 C-8.45182455 -0.12838455 -4.63612601 -0.05627417 0 0 Z " fill="#3F9442" transform="translate(737.6875,285.9375)"/>
<path d="M0 0 C0.66 0 1.32 0 2 0 C2 0.66 2 1.32 2 2 C5.63 2 9.26 2 13 2 C13.66 3.32 14.32 4.64 15 6 C13.68 6 12.36 6 11 6 C10.67 6.99 10.34 7.98 10 9 C7 9 7 9 5.5625 7.625 C5.046875 7.08875 4.53125 6.5525 4 6 C1.90010348 4.82425289 1.90010348 4.82425289 0 4 C0 2.68 0 1.36 0 0 Z " fill="#258E40" transform="translate(340,281)"/>
<path d="M0 0 C-0.99 0.495 -0.99 0.495 -2 1 C-1.67 2.65 -1.34 4.3 -1 6 C-2.65 6.33 -4.3 6.66 -6 7 C-6 5.68 -6 4.36 -6 3 C-10.62 3 -15.24 3 -20 3 C-17.37945377 0.37945377 -15.90149956 0.62024997 -12.25 0.375 C-11.22390625 0.30023438 -10.1978125 0.22546875 -9.140625 0.1484375 C-6.08810837 0.00416433 -3.05538786 -0.0274436 0 0 Z " fill="#288F44" transform="translate(280,270)"/>
<path d="M0 0 C0.99 0.33 1.98 0.66 3 1 C3 1.66 3 2.32 3 3 C4.32 3.66 5.64 4.32 7 5 C6.67 5.99 6.34 6.98 6 8 C6.99 8.66 7.98 9.32 9 10 C3.93001981 9.34580901 -0.41990777 7.1453591 -5 5 C-3.35 3.35 -1.7 1.7 0 0 Z " fill="#1C6C8B" transform="translate(272,439)"/>
<path d="M0 0 C0.66 0 1.32 0 2 0 C1.84660156 1.27746094 1.69320312 2.55492187 1.53515625 3.87109375 C0.9731854 8.92883136 0.67798768 13.98071937 0.4375 19.0625 C0.39431641 19.92810547 0.35113281 20.79371094 0.30664062 21.68554688 C0.20198714 23.79024468 0.10064089 25.89510651 0 28 C-0.33 28 -0.66 28 -1 28 C-1.09087891 26.24623047 -1.09087891 26.24623047 -1.18359375 24.45703125 C-1.26804034 22.90884386 -1.35268625 21.36066732 -1.4375 19.8125 C-1.49647461 18.65911133 -1.49647461 18.65911133 -1.55664062 17.48242188 C-1.73499333 14.28579267 -1.93626846 11.2899785 -2.625 8.15625 C-3.20112703 4.84351955 -1.63592961 2.81379894 0 0 Z " fill="#166A70" transform="translate(223,314)"/>
<path d="M0 0 C0.99 0 1.98 0 3 0 C2.44854729 5.23880078 1.57077907 9.97350697 0 15 C-0.66 13.68 -1.32 12.36 -2 11 C-2.33 11.66 -2.66 12.32 -3 13 C-3.66 13 -4.32 13 -5 13 C-4.54554036 11.58208592 -4.08625056 10.16571954 -3.625 8.75 C-3.24214844 7.56664062 -3.24214844 7.56664062 -2.8515625 6.359375 C-2.04826333 4.13372042 -1.10288338 2.09068328 0 0 Z " fill="#3D9D41" transform="translate(808,305)"/>
<path d="M0 0 C0.33 0 0.66 0 1 0 C1.33 5.28 1.66 10.56 2 16 C1.34 16 0.68 16 0 16 C0 16.99 0 17.98 0 19 C1.32 18.67 2.64 18.34 4 18 C4.33 19.32 4.66 20.64 5 22 C2.36 22 -0.28 22 -3 22 C-3.33 22.99 -3.66 23.98 -4 25 C-4.66 24.67 -5.32 24.34 -6 24 C-5.360625 23.071875 -4.72125 22.14375 -4.0625 21.1875 C-1.07548839 16.57120933 -0.74203659 12.6593637 -0.4375 7.3125 C-0.37272461 6.2596582 -0.37272461 6.2596582 -0.30664062 5.18554688 C-0.2008264 3.45724794 -0.09993419 1.7286489 0 0 Z " fill="#4B9E50" transform="translate(636,307)"/>
<path d="M0 0 C0.66 0 1.32 0 2 0 C1.38722388 2.96175123 0.74627478 4.38058783 -1 7 C-1.66 7 -2.32 7 -3 7 C-3.226875 7.9075 -3.45375 8.815 -3.6875 9.75 C-5.18127977 13.44888324 -6.75400577 14.77905658 -10 17 C-10.33 16.01 -10.66 15.02 -11 14 C-10.01 13.67 -9.02 13.34 -8 13 C-7.71125 12.0925 -7.4225 11.185 -7.125 10.25 C-5.8008537 6.42468846 -3.94068067 4.71447446 -1 2 C-0.67 1.34 -0.34 0.68 0 0 Z " fill="#248C4F" transform="translate(388,402)"/>
<path d="M0 0 C0.66 0 1.32 0 2 0 C2 11.88 2 23.76 2 36 C1.67 36 1.34 36 1 36 C0.67 26.43 0.34 16.86 0 7 C-0.99 7.495 -0.99 7.495 -2 8 C-1.34 5.36 -0.68 2.72 0 0 Z " fill="#D5E9D5" transform="translate(818,306)"/>
<path d="M0 0 C3.375 -0.125 3.375 -0.125 7 0 C9.35953094 2.35953094 9.49141413 3.77895617 10 7 C10.99 7.33 11.98 7.66 13 8 C13 8.66 13 9.32 13 10 C10 12 10 12 7.3125 11.625 C6.549375 11.41875 5.78625 11.2125 5 11 C5.33 8.03 5.66 5.06 6 2 C3.03 1.505 3.03 1.505 0 1 C0 0.67 0 0.34 0 0 Z " fill="#106C7C" transform="translate(312,263)"/>
<path d="M0 0 C0.99 0 1.98 0 3 0 C3 7.26 3 14.52 3 22 C2.34 22.33 1.68 22.66 1 23 C0.67 15.41 0.34 7.82 0 0 Z " fill="#3E9C41" transform="translate(819,304)"/>
<path d="M0 0 C0.99 0 1.98 0 3 0 C3 2.31 3 4.62 3 7 C1.35 7.33 -0.3 7.66 -2 8 C-2.66 6.68 -3.32 5.36 -4 4 C-6.97 4 -9.94 4 -13 4 C-13 3.67 -13 3.34 -13 3 C-8.71 3 -4.42 3 0 3 C0 2.01 0 1.02 0 0 Z " fill="#29953A" transform="translate(370,305)"/>
<path d="M0 0 C-0.33 0.99 -0.66 1.98 -1 3 C-4.01490557 4.00496852 -6.04181692 4.10335303 -9.1875 4.0625 C-10.53908203 4.04896484 -10.53908203 4.04896484 -11.91796875 4.03515625 C-12.60503906 4.02355469 -13.29210937 4.01195312 -14 4 C-10.36515075 -1.28705346 -5.79646176 -0.3982302 0 0 Z " fill="#136280" transform="translate(278,267)"/>
<path d="M0 0 C0.33 0.66 0.66 1.32 1 2 C0.01 2.495 0.01 2.495 -1 3 C-1.144375 3.969375 -1.28875 4.93875 -1.4375 5.9375 C-1.623125 6.948125 -1.80875 7.95875 -2 9 C-2.99 9.66 -3.98 10.32 -5 11 C-5.73343428 14.06556598 -5.73343428 14.06556598 -6 17 C-6.33 17 -6.66 17 -7 17 C-7.78545181 7.03348923 -7.78545181 7.03348923 -4.625 2.875 C-2 1 -2 1 0 0 Z " fill="#126F72" transform="translate(238,326)"/>
<path d="M0 0 C1.98 0.66 3.96 1.32 6 2 C6 3.32 6 4.64 6 6 C3.36 6 0.72 6 -2 6 C-2 7.65 -2 9.3 -2 11 C-2.33 11 -2.66 11 -3 11 C-3 8.69 -3 6.38 -3 4 C-2.34 4 -1.68 4 -1 4 C-0.67 2.68 -0.34 1.36 0 0 Z " fill="#137071" transform="translate(339,301)"/>
<path d="M0 0 C2.1519437 3.22791555 2.20086443 4.28400809 2 8 C0.68 8.33 -0.64 8.66 -2 9 C-2 9.99 -2 10.98 -2 12 C-2.99 12 -3.98 12 -5 12 C-4.67 10.02 -4.34 8.04 -4 6 C-3.34 6 -2.68 6 -2 6 C-1.7834375 5.071875 -1.7834375 5.071875 -1.5625 4.125 C-1 2 -1 2 0 0 Z " fill="#28923B" transform="translate(230,306)"/>
<path d="M0 0 C0 2.31 0 4.62 0 7 C-6.625 7.25 -6.625 7.25 -10 5 C-8.52227402 4.1641146 -7.04277811 3.33135744 -5.5625 2.5 C-4.32693359 1.80390625 -4.32693359 1.80390625 -3.06640625 1.09375 C-1 0 -1 0 0 0 Z " fill="#389B3B" transform="translate(246,225)"/>
<path d="M0 0 C0 0.66 0 1.32 0 2 C1.65 2 3.3 2 5 2 C5 2.33 5 2.66 5 3 C-0.38027025 4.19088986 -5.45291384 5.2919519 -11 5 C-10.67 3.68 -10.34 2.36 -10 1 C-2.25 0 -2.25 0 0 0 Z " fill="#3B9B40" transform="translate(337,498)"/>
<path d="M0 0 C0.33 0 0.66 0 1 0 C2.2982126 5.76081841 3.25706972 11.08739655 3 17 C-0.21037485 14.66518192 -0.94994594 11.78214836 -1.79296875 8.07421875 C-2.09608621 5.03732498 -1.23476492 2.74392205 0 0 Z " fill="#369744" transform="translate(403,326)"/>
<path d="M0 0 C1.4606285 2.64738916 2 3.89448334 2 7 C2.66 7 3.32 7 4 7 C4.33 6.34 4.66 5.68 5 5 C5 5.66 5 6.32 5 7 C5.66 7.33 6.32 7.66 7 8 C6.34 8 5.68 8 5 8 C4.67 9.32 4.34 10.64 4 12 C3.01 11.67 2.02 11.34 1 11 C-0.47666292 7.50970582 -0.07164685 3.72563614 0 0 Z " fill="#0F6B77" transform="translate(286,432)"/>
<path d="M0 0 C2.31 0 4.62 0 7 0 C7 1.65 7 3.3 7 5 C3.26512223 4.5020163 1.18762365 4.12508244 -2 2 C-1.34 2 -0.68 2 0 2 C0 1.34 0 0.68 0 0 Z " fill="#267491" transform="translate(283,447)"/>
<path d="M0 0 C0.33 0.66 0.66 1.32 1 2 C1.99 2 2.98 2 4 2 C3.45276317 5.37462715 2.9451 7.08235 1 10 C0.34 10 -0.32 10 -1 10 C-0.67 8.35 -0.34 6.7 0 5 C-0.66 4.67 -1.32 4.34 -2 4 C-1.34 2.68 -0.68 1.36 0 0 Z " fill="#17667C" transform="translate(390,402)"/>
<path d="M0 0 C2.875 -0.125 2.875 -0.125 6 0 C6.66 0.66 7.32 1.32 8 2 C4.04 3.98 4.04 3.98 0 6 C0 4.02 0 2.04 0 0 Z " fill="#349A39" transform="translate(371,485)"/>
<path d="M0 0 C0.99 0.33 1.98 0.66 3 1 C2.40716379 4.39192363 1.23256811 6.2107757 -1.0625 8.75 C-1.61035156 9.36359375 -2.15820312 9.9771875 -2.72265625 10.609375 C-3.14417969 11.06828125 -3.56570313 11.5271875 -4 12 C-4.33 11.34 -4.66 10.68 -5 10 C-4.00390625 7.6171875 -4.00390625 7.6171875 -2.5625 4.875 C-1.85287109 3.50988281 -1.85287109 3.50988281 -1.12890625 2.1171875 C-0.75636719 1.41851562 -0.38382812 0.71984375 0 0 Z " fill="#47A14C" transform="translate(409,400)"/>
<path d="M0 0 C1.43739513 -0.02712066 2.87493863 -0.04645067 4.3125 -0.0625 C5.51326172 -0.07990234 5.51326172 -0.07990234 6.73828125 -0.09765625 C9 0 9 0 12 1 C12.33 1.99 12.66 2.98 13 4 C12.01 4 11.02 4 10 4 C10 3.34 10 2.68 10 2 C9.278125 2.185625 8.55625 2.37125 7.8125 2.5625 C4.87173027 3.01995307 2.85896942 2.73516357 0 2 C0 1.34 0 0.68 0 0 Z " fill="#248E46" transform="translate(257,360)"/>
<path d="M0 0 C1.65 0 3.3 0 5 0 C4.95875 0.928125 4.9175 1.85625 4.875 2.8125 C4.72863661 6.15809719 4.72863661 6.15809719 7 9 C6.34 9.66 5.68 10.32 5 11 C4.16151196 9.54462432 3.32936066 8.08559627 2.5 6.625 C1.80390625 5.40683594 1.80390625 5.40683594 1.09375 4.1640625 C0 2 0 2 0 0 Z " fill="#3E9D45" transform="translate(178,417)"/>
<path d="M0 0 C2.97 0.495 2.97 0.495 6 1 C5.01 1.495 5.01 1.495 4 2 C4 2.66 4 3.32 4 4 C6.97065509 3.65772428 6.97065509 3.65772428 10 3 C10.33 2.34 10.66 1.68 11 1 C11.33 2.32 11.66 3.64 12 5 C10.56344146 5.08131463 9.1255517 5.13933559 7.6875 5.1875 C6.48673828 5.23970703 6.48673828 5.23970703 5.26171875 5.29296875 C3 5 3 5 1.20703125 3.61328125 C0 2 0 2 0 0 Z " fill="#339338" transform="translate(689,337)"/>
<path d="M0 0 C0 0.66 0 1.32 0 2 C-3.63195496 4.42130331 -5.38349348 4.21022785 -9.6875 4.125 C-11.45673828 4.09792969 -11.45673828 4.09792969 -13.26171875 4.0703125 C-14.16535156 4.04710937 -15.06898438 4.02390625 -16 4 C-16.33 3.01 -16.66 2.02 -17 1 C-16.08476563 1.01160156 -15.16953125 1.02320313 -14.2265625 1.03515625 C-13.03804687 1.04417969 -11.84953125 1.05320312 -10.625 1.0625 C-8.84996094 1.07990234 -8.84996094 1.07990234 -7.0390625 1.09765625 C-4.2882453 1.00926238 -2.63012256 0 0 0 Z " fill="#409845" transform="translate(629,332)"/>
<path d="M0 0 C0.66 0.33 1.32 0.66 2 1 C2.4140625 3.06640625 2.4140625 3.06640625 2.625 5.5625 C2.69976562 6.38878906 2.77453125 7.21507812 2.8515625 8.06640625 C2.90054687 8.70449219 2.94953125 9.34257812 3 10 C-0.68754757 9.50168276 -2.60490662 8.89932357 -5 6 C-3.68 6 -2.36 6 -1 6 C-0.67 4.02 -0.34 2.04 0 0 Z " fill="#27933D" transform="translate(271,284)"/>
<path d="M0 0 C1.98 0 3.96 0 6 0 C6.33 1.32 6.66 2.64 7 4 C1.25 4.125 1.25 4.125 -1 3 C-0.67 2.01 -0.34 1.02 0 0 Z " fill="#29953D" transform="translate(318,276)"/>
<path d="M0 0 C1.20628008 2.33214148 2.1654738 4.49642139 3 7 C2.01 7.495 2.01 7.495 1 8 C0.34227572 11.02934491 0.34227572 11.02934491 0 14 C-0.33 14 -0.66 14 -1 14 C-1.22786458 11.98177083 -1.45572917 9.96354167 -1.68359375 7.9453125 C-1.91292961 5.92595684 -1.91292961 5.92595684 -3 4 C-2.34 3.67 -1.68 3.34 -1 3 C-0.67 2.01 -0.34 1.02 0 0 Z " fill="#147466" transform="translate(402,336)"/>
<path d="M0 0 C1.32 0.66 2.64 1.32 4 2 C4 2.66 4 3.32 4 4 C-0.38461538 7 -0.38461538 7 -3 7 C-3.1875 4.625 -3.1875 4.625 -3 2 C-2.01 1.34 -1.02 0.68 0 0 Z " fill="#34973A" transform="translate(633,335)"/>
<path d="M0 0 C0 3 0 3 -1 6 C-5.29 5.67 -9.58 5.34 -14 5 C-14 4.67 -14 4.34 -14 4 C-13.32453125 3.96261719 -12.6490625 3.92523438 -11.953125 3.88671875 C-11.06109375 3.82097656 -10.1690625 3.75523437 -9.25 3.6875 C-8.36828125 3.62949219 -7.4865625 3.57148438 -6.578125 3.51171875 C-3.67696226 2.9358819 -2.20774393 1.92403852 0 0 Z " fill="#429F46" transform="translate(575,329)"/>
<path d="M0 0 C1.04296875 1.87890625 1.04296875 1.87890625 2 4 C1.3125 5.9375 1.3125 5.9375 0 8 C-0.53625 8.9075 -1.0725 9.815 -1.625 10.75 C-2.305625 11.86375 -2.305625 11.86375 -3 13 C-4 11 -4 11 -3.22265625 8.3984375 C-2.83980469 7.40070313 -2.45695313 6.40296875 -2.0625 5.375 C-1.68222656 4.37210937 -1.30195312 3.36921875 -0.91015625 2.3359375 C-0.60980469 1.56507813 -0.30945313 0.79421875 0 0 Z " fill="#4FA255" transform="translate(871,307)"/>
<path d="M0 0 C1.0625 1.8125 1.0625 1.8125 2 4 C1.67 4.99 1.34 5.98 1 7 C0.34 7 -0.32 7 -1 7 C-1.33 7.99 -1.66 8.98 -2 10 C-2.66 9.67 -3.32 9.34 -4 9 C-2.80100302 5.9168649 -1.52299523 2.93720508 0 0 Z " fill="#266881" transform="translate(227,305)"/>
<path d="M0 0 C0.66 0 1.32 0 2 0 C1.38722388 2.96175123 0.74627478 4.38058783 -1 7 C-1.66 7 -2.32 7 -3 7 C-3.33 7.99 -3.66 8.98 -4 10 C-4.33 9.01 -4.66 8.02 -5 7 C-4.07421875 5.17578125 -4.07421875 5.17578125 -2.6875 3.3125 C-2.23761719 2.68988281 -1.78773438 2.06726563 -1.32421875 1.42578125 C-0.88722656 0.95527344 -0.45023437 0.48476563 0 0 Z " fill="#2B9741" transform="translate(388,402)"/>
<path d="M0 0 C2.125 0.375 2.125 0.375 4 1 C3.67 1.66 3.34 2.32 3 3 C2.01 3 1.02 3 0 3 C0.33 4.32 0.66 5.64 1 7 C-0.32 6.67 -1.64 6.34 -3 6 C-2.42655063 3.13275314 -2.1385485 2.1385485 0 0 Z " fill="#27932C" transform="translate(550,330)"/>
<path d="M0 0 C0.99 0.99 1.98 1.98 3 3 C1.92598892 5.91517292 1.22189824 7.77810176 -1 10 C-1.02689216 8.52093108 -1.04634621 7.04172517 -1.0625 5.5625 C-1.07410156 4.73878906 -1.08570313 3.91507812 -1.09765625 3.06640625 C-1 1 -1 1 0 0 Z " fill="#36993D" transform="translate(216,294)"/>
<path d="M0 0 C2.31 0.33 4.62 0.66 7 1 C5.5625 2.5625 5.5625 2.5625 3 4 C-0.05380927 3.96846324 -2.99653222 3.53266629 -6 3 C-6 2.67 -6 2.34 -6 2 C-4.02 1.67 -2.04 1.34 0 1 C0 0.67 0 0.34 0 0 Z " fill="#43A14A" transform="translate(387,283)"/>
<path d="M0 0 C2.97 0.495 2.97 0.495 6 1 C6 1.66 6 2.32 6 3 C7.98 2.67 9.96 2.34 12 2 C12.33 2.99 12.66 3.98 13 5 C12.01 6.485 12.01 6.485 11 8 C11 6.68 11 5.36 11 4 C9.02 4 7.04 4 5 4 C5 3.34 5 2.68 5 2 C3.35 2 1.7 2 0 2 C0 1.34 0 0.68 0 0 Z " fill="#26914A" transform="translate(288,265)"/>
<path d="M0 0 C1.32 0 2.64 0 4 0 C2.74874616 3.75376152 1.4347596 4.24073289 -2 6 C-2.66 6 -3.32 6 -4 6 C-2.84826645 3.53199953 -1.95216435 1.95216435 0 0 Z " fill="#236F8A" transform="translate(361,436)"/>
<path d="M0 0 C0.66 0 1.32 0 2 0 C2.6875 1.8125 2.6875 1.8125 3 4 C1.8125 5.8125 1.8125 5.8125 0 7 C-2.1875 6.6875 -2.1875 6.6875 -4 6 C-3.525625 5.566875 -3.05125 5.13375 -2.5625 4.6875 C-0.76313043 2.97690387 -0.76313043 2.97690387 0 0 Z " fill="#126F76" transform="translate(378,409)"/>
<path d="M0 0 C0.99 0 1.98 0 3 0 C3.99 2.97 4.98 5.94 6 9 C5.34 9 4.68 9 4 9 C4 8.01 4 7.02 4 6 C3.01 5.67 2.02 5.34 1 5 C0.67 3.35 0.34 1.7 0 0 Z " fill="#3C9A41" transform="translate(889,287)"/>
<path d="M0 0 C-0.33 0.99 -0.66 1.98 -1 3 C-1 2.34 -1 1.68 -1 1 C-4.72433382 2.2125738 -8.37802806 3.50859979 -12 5 C-9.28085049 -1.02097391 -6.0998139 -0.0983841 0 0 Z " fill="#4F9E53" transform="translate(857,272)"/>
<path d="M0 0 C-0.33 1.32 -0.66 2.64 -1 4 C-2.65 4 -4.3 4 -6 4 C-6 3.34 -6 2.68 -6 2 C-6.66 1.67 -7.32 1.34 -8 1 C-5.29120665 -0.35439668 -2.99066732 -0.06501451 0 0 Z " fill="#2C7591" transform="translate(296,259)"/>
<path d="M0 0 C-7.0547046 4.07877462 -7.0547046 4.07877462 -11 3.75 C-11.66 3.5025 -12.32 3.255 -13 3 C-4.57724436 -1.36735478 -4.57724436 -1.36735478 0 0 Z " fill="#4FA252" transform="translate(276,215)"/>
<path d="M0 0 C0.66 0.99 1.32 1.98 2 3 C1.125 6.1875 1.125 6.1875 0 9 C-0.66 8.67 -1.32 8.34 -2 8 C-2.625 4.9375 -2.625 4.9375 -3 2 C-2.01 2.33 -1.02 2.66 0 3 C0 2.01 0 1.02 0 0 Z " fill="#369A3A" transform="translate(432,430)"/>
<path d="M0 0 C2.04119788 1.61594832 4.04072937 3.2856382 6 5 C6 5.66 6 6.32 6 7 C4.68 7.33 3.36 7.66 2 8 C2 6.68 2 5.36 2 4 C1.34 4 0.68 4 0 4 C0 2.68 0 1.36 0 0 Z " fill="#3A9640" transform="translate(755,291)"/>
<path d="M0 0 C2 2 2 2 2.125 5.625 C2.08375 6.73875 2.0425 7.8525 2 9 C1.67 8.01 1.34 7.02 1 6 C0.01 6.33 -0.98 6.66 -2 7 C-2.125 4.625 -2.125 4.625 -2 2 C-1.34 1.34 -0.68 0.68 0 0 Z " fill="#28942A" transform="translate(719,309)"/>
<path d="M0 0 C1.32 0.33 2.64 0.66 4 1 C4 2.65 4 4.3 4 6 C3.01 6.33 2.02 6.66 1 7 C0.01 6.34 -0.98 5.68 -2 5 C-1.01 4.34 -0.02 3.68 1 3 C0.67 2.01 0.34 1.02 0 0 Z " fill="#258E42" transform="translate(380,308)"/>
<path d="M0 0 C3.85645121 -0.22036864 6.49223216 0.39644899 10 2 C9.67 2.99 9.34 3.98 9 5 C6.03 4.505 6.03 4.505 3 4 C3 3.34 3 2.68 3 2 C2.01 1.34 1.02 0.68 0 0 Z " fill="#289142" transform="translate(333,286)"/>
<path d="M0 0 C0.33 1.32 0.66 2.64 1 4 C2.65 4 4.3 4 6 4 C5.67 4.66 5.34 5.32 5 6 C3.02 6 1.04 6 -1 6 C-1 2 -1 2 0 0 Z " fill="#569F5A" transform="translate(844,277)"/>
<path d="M0 0 C0.33 0.66 0.66 1.32 1 2 C1.99 2.33 2.98 2.66 4 3 C4 3.66 4 4.32 4 5 C2.02 5 0.04 5 -2 5 C-2 3.68 -2 2.36 -2 1 C-1.34 0.67 -0.68 0.34 0 0 Z " fill="#1E8E24" transform="translate(847,276)"/>
<path d="M0 0 C1.98 0.495 1.98 0.495 4 1 C3.34 1.66 2.68 2.32 2 3 C2.66 3.66 3.32 4.32 4 5 C3.01 5.66 2.02 6.32 1 7 C1 6.34 1 5.68 1 5 C0.34 5 -0.32 5 -1 5 C-0.67 3.35 -0.34 1.7 0 0 Z " fill="#349739" transform="translate(419,446)"/>
<path d="M0 0 C4.7517398 0.43197635 6.92000054 1.32769295 10 5 C9.01 5.33 8.02 5.66 7 6 C6.34 5.01 5.68 4.02 5 3 C1.93443402 2.26656572 1.93443402 2.26656572 -1 2 C-0.67 1.34 -0.34 0.68 0 0 Z " fill="#116D75" transform="translate(277,442)"/>
<path d="M0 0 C0.33 1.32 0.66 2.64 1 4 C-1.97 4 -4.94 4 -8 4 C-8 3.34 -8 2.68 -8 2 C-7.236875 1.855625 -6.47375 1.71125 -5.6875 1.5625 C-2.91827092 1.0367406 -2.91827092 1.0367406 0 0 Z " fill="#1C8C26" transform="translate(869,338)"/>
<path d="M0 0 C0.66 0.33 1.32 0.66 2 1 C2 3.64 2 6.28 2 9 C1.01 8.67 0.02 8.34 -1 8 C-1.625 5.6875 -1.625 5.6875 -2 3 C-1.34 2.01 -0.68 1.02 0 0 Z " fill="#228A4C" transform="translate(247,323)"/>
<path d="M0 0 C0.33 0 0.66 0 1 0 C1.33 2.64 1.66 5.28 2 8 C0.68 8.99 -0.64 9.98 -2 11 C-1 3.57142857 -1 3.57142857 0 0 Z " fill="#5EAC61" transform="translate(171,311)"/>
<path d="M0 0 C0.66 0.33 1.32 0.66 2 1 C1.360625 1.598125 0.72125 2.19625 0.0625 2.8125 C-2.20310389 4.90810337 -2.20310389 4.90810337 -3 8 C-3.99 7.67 -4.98 7.34 -6 7 C-4.60667426 3.63279613 -3.0210714 2.0140476 0 0 Z " fill="#4A9F4E" transform="translate(723,289)"/>
<path d="M0 0 C2.97 0.495 2.97 0.495 6 1 C6 1.99 6 2.98 6 4 C4.02 4 2.04 4 0 4 C0 2.68 0 1.36 0 0 Z " fill="#126E7B" transform="translate(298,280)"/>
<path d="M0 0 C-0.66 1.65 -1.32 3.3 -2 5 C-2.99 5 -3.98 5 -5 5 C-5.33 5.99 -5.66 6.98 -6 8 C-5.6875 5.125 -5.6875 5.125 -5 2 C-2 0 -2 0 0 0 Z " fill="#0B6586" transform="translate(390,407)"/>
<path d="M0 0 C0.33 0.99 0.66 1.98 1 3 C0.01 4.485 0.01 4.485 -1 6 C-1.66 6 -2.32 6 -3 6 C-3 5.34 -3 4.68 -3 4 C-3.99 4 -4.98 4 -6 4 C-6 3.34 -6 2.68 -6 2 C-4.7934375 1.7834375 -4.7934375 1.7834375 -3.5625 1.5625 C-1.07896294 1.25864751 -1.07896294 1.25864751 0 0 Z " fill="#259528" transform="translate(723,294)"/>
<path d="M0 0 C1.32 0.33 2.64 0.66 4 1 C2.625 2.5 2.625 2.5 1 4 C0.34 4 -0.32 4 -1 4 C-1.33 5.32 -1.66 6.64 -2 8 C-2.33 7.34 -2.66 6.68 -3 6 C-2.06553465 3.96855359 -1.06775224 1.96466413 0 0 Z " fill="#459B4B" transform="translate(879,287)"/>
<path d="M0 0 C1.32 0.33 2.64 0.66 4 1 C4 2.32 4 3.64 4 5 C2.68 5.33 1.36 5.66 0 6 C0 4.02 0 2.04 0 0 Z " fill="#0C648B" transform="translate(280,273)"/>
<path d="M0 0 C1.32 0.66 2.64 1.32 4 2 C2.68799596 3.35432675 1.35368596 4.68733482 0 6 C-0.33 6 -0.66 6 -1 6 C-1.042721 4.33388095 -1.04063832 2.66617115 -1 1 C-0.67 0.67 -0.34 0.34 0 0 Z " fill="#369B3C" transform="translate(391,474)"/>
<path d="M0 0 C2.31 0 4.62 0 7 0 C7.33 0.99 7.66 1.98 8 3 C3.44615385 3.36923077 3.44615385 3.36923077 1.1875 1.5 C0.5996875 0.7575 0.5996875 0.7575 0 0 Z " fill="#268F4C" transform="translate(284,444)"/>
<path d="M0 0 C0.33 0.66 0.66 1.32 1 2 C1.99 2 2.98 2 4 2 C4 2.99 4 3.98 4 5 C2.02 5.66 0.04 6.32 -2 7 C-1.34 4.69 -0.68 2.38 0 0 Z " fill="#116D7C" transform="translate(238,359)"/>
<path d="M0 0 C2.18975773 3.28463659 2.99806563 6.20696275 4 10 C3.01 10 2.02 10 1 10 C1 8.02 1 6.04 1 4 C0.34 3.67 -0.32 3.34 -1 3 C-0.67 2.01 -0.34 1.02 0 0 Z " fill="#52A056" transform="translate(907,330)"/>
<path d="M0 0 C-0.33 1.32 -0.66 2.64 -1 4 C-1.94875 3.835 -2.8975 3.67 -3.875 3.5 C-6.80168901 2.9473365 -6.80168901 2.9473365 -9 3 C-9 2.34 -9 1.68 -9 1 C-5.94152152 0.45627049 -3.11227195 0 0 0 Z " fill="#258D41" transform="translate(359,315)"/>
<path d="M0 0 C0.99 0.33 1.98 0.66 3 1 C2.1875 4.4375 2.1875 4.4375 1 8 C0.01 8.33 -0.98 8.66 -2 9 C-2 8.34 -2 7.68 -2 7 C-1.34 7 -0.68 7 0 7 C0 4.69 0 2.38 0 0 Z " fill="#4BA150" transform="translate(209,311)"/>
<path d="M0 0 C2.91517292 1.07401108 4.77810176 1.77810176 7 4 C5.68 4.33 4.36 4.66 3 5 C3 4.34 3 3.68 3 3 C2.01 3 1.02 3 0 3 C0 2.01 0 1.02 0 0 Z " fill="#257189" transform="translate(357,270)"/>
<path d="M0 0 C0.66 0.33 1.32 0.66 2 1 C-1.465 3.97 -1.465 3.97 -5 7 C-5.66 6.67 -6.32 6.34 -7 6 C-4.69 4.02 -2.38 2.04 0 0 Z " fill="#565B5E" transform="translate(507,363)"/>
<path d="M0 0 C0.99 0 1.98 0 3 0 C3 2.31 3 4.62 3 7 C2.34 7 1.68 7 1 7 C0.67 4.69 0.34 2.38 0 0 Z " fill="#23894A" transform="translate(370,305)"/>
<path d="M0 0 C1.43088528 2.86177057 0.59991697 4.93375773 0 8 C-0.99 8 -1.98 8 -3 8 C-2.45276317 4.62537285 -1.9451 2.91765 0 0 Z " fill="#469F4C" transform="translate(598,296)"/>
<path d="M0 0 C0.8125 1.6875 0.8125 1.6875 1 4 C-1.4375 6.75 -1.4375 6.75 -4 9 C-2.94124926 5.59687262 -1.99097846 2.98646769 0 0 Z " fill="#46A04B" transform="translate(185,281)"/>
<path d="M0 0 C3.465 1.485 3.465 1.485 7 3 C6.34 3.66 5.68 4.32 5 5 C3.68 5 2.36 5 1 5 C0.67 3.35 0.34 1.7 0 0 Z " fill="#20718A" transform="translate(348,265)"/>
<path d="M0 0 C-0.33 1.32 -0.66 2.64 -1 4 C-2.98 4 -4.96 4 -7 4 C-3.17391304 0 -3.17391304 0 0 0 Z " fill="#419F43" transform="translate(236,231)"/>
</svg>
